<?xml version="1.0" encoding="UTF-8"?>
<!DOCTYPE svg PUBLIC "-//W3C//DTD SVG 1.1//EN" "http://www.w3.org/Graphics/SVG/1.1/DTD/svg11.dtd">
<svg xmlns="http://www.w3.org/2000/svg" version="1.1" width="968px" height="1277px" style="shape-rendering:geometricPrecision; text-rendering:geometricPrecision; image-rendering:optimizeQuality; fill-rule:evenodd; clip-rule:evenodd" xmlns:xlink="http://www.w3.org/1999/xlink">
<g><path style="opacity:0.82" fill="#3f3f3f" d="M 537.5,114.5 C 539.404,114.738 540.738,115.738 541.5,117.5C 539.071,117.116 536.737,116.449 534.5,115.5C 534.5,116.5 534.5,117.5 534.5,118.5C 533.566,117.432 533.232,116.099 533.5,114.5C 534.833,114.5 536.167,114.5 537.5,114.5 Z"/></g>
<g><path style="opacity:1" fill="#181818" d="M 541.5,117.5 C 544.335,120.165 547.335,122.665 550.5,125C 552.141,126.129 553.141,127.629 553.5,129.5C 549.607,129.159 546.107,127.826 543,125.5C 542.667,126.167 542.333,126.833 542,127.5C 541.275,125.842 540.108,125.342 538.5,126C 539.456,129.394 539.789,132.894 539.5,136.5C 539.167,136.5 538.833,136.5 538.5,136.5C 538.665,133.482 538.498,130.482 538,127.5C 536.378,124.678 535.211,121.678 534.5,118.5C 534.5,117.5 534.5,116.5 534.5,115.5C 536.737,116.449 539.071,117.116 541.5,117.5 Z"/></g>
<g><path style="opacity:1" fill="#010101" d="M 553.5,129.5 C 558.687,132.01 563.021,135.676 566.5,140.5C 566.918,143.09 567.918,145.423 569.5,147.5C 569.814,150.559 569.481,153.393 568.5,156C 569.448,156.483 570.448,156.649 571.5,156.5C 571.5,155.5 571.5,154.5 571.5,153.5C 574.738,153.349 577.071,154.682 578.5,157.5C 578.023,158.478 577.357,159.311 576.5,160C 578.11,161.495 579.776,161.661 581.5,160.5C 583.36,161.26 585.027,162.26 586.5,163.5C 587.105,166.127 587.605,168.793 588,171.5C 590.398,171.958 592.064,173.292 593,175.5C 593.027,178.911 593.194,182.244 593.5,185.5C 590.904,187.297 591.237,188.631 594.5,189.5C 595.711,188.726 595.711,187.893 594.5,187C 596.936,186.564 598.936,187.397 600.5,189.5C 599.266,191.398 599.599,193.065 601.5,194.5C 601.833,193.167 602.167,191.833 602.5,190.5C 604.08,192.409 605.747,194.075 607.5,195.5C 611.816,203.946 615.649,212.612 619,221.5C 620.807,227.392 621.974,233.392 622.5,239.5C 622.41,242.152 623.076,244.485 624.5,246.5C 626.224,263.277 625.558,279.943 622.5,296.5C 621.076,298.515 620.41,300.848 620.5,303.5C 620.5,303.833 620.5,304.167 620.5,304.5C 619.076,306.515 618.41,308.848 618.5,311.5C 617.877,313.711 616.877,315.711 615.5,317.5C 613.9,318.252 612.4,319.252 611,320.5C 610.683,318.699 610.016,318.366 609,319.5C 608.071,323.384 607.571,327.384 607.5,331.5C 605.257,332.474 602.924,332.808 600.5,332.5C 600.36,334.124 601.027,335.29 602.5,336C 601.5,336.333 600.5,336.667 599.5,337C 600.173,341.315 600.173,345.482 599.5,349.5C 597.801,349.38 596.135,349.046 594.5,348.5C 590.647,349.504 590.647,350.338 594.5,351C 593.692,351.308 593.025,351.808 592.5,352.5C 593.393,355.084 593.726,357.751 593.5,360.5C 587.941,369.566 581.774,378.232 575,386.5C 567.904,394.417 561.071,402.417 554.5,410.5C 550.527,413.806 546.86,417.473 543.5,421.5C 540.833,424.5 538.167,427.5 535.5,430.5C 532.097,432.9 529.43,435.9 527.5,439.5C 505.744,457.556 483.744,475.39 461.5,493C 435.261,516.912 409.427,541.079 384,565.5C 371.555,578.946 360.221,593.28 350,608.5C 347.107,613.552 344.941,618.886 343.5,624.5C 342.076,626.515 341.41,628.848 341.5,631.5C 333.453,669.962 341.786,704.462 366.5,735C 368.81,735.497 371.143,735.663 373.5,735.5C 375.681,735.716 377.347,734.883 378.5,733C 378.167,732.667 377.833,732.333 377.5,732C 380.134,729.546 382.134,726.713 383.5,723.5C 387.089,721.586 390.422,719.252 393.5,716.5C 397.338,715.671 400.005,713.338 401.5,709.5C 404.226,709.145 406.226,707.812 407.5,705.5C 410.995,702.347 414.995,700.014 419.5,698.5C 419.5,697.5 419.5,696.5 419.5,695.5C 420.5,695.5 421.5,695.5 422.5,695.5C 428.565,694.479 433.231,691.479 436.5,686.5C 437.5,685.833 438.5,685.167 439.5,684.5C 441.887,684.088 443.887,683.088 445.5,681.5C 450.452,680.091 454.785,677.757 458.5,674.5C 461.226,674.145 463.226,672.812 464.5,670.5C 464.833,670.5 465.167,670.5 465.5,670.5C 472.274,667.614 478.94,664.447 485.5,661C 487.394,658.611 489.394,656.444 491.5,654.5C 494.147,654.071 496.147,652.738 497.5,650.5C 499.969,649.431 502.302,648.098 504.5,646.5C 506.541,646.146 508.374,646.146 510,646.5C 512.08,644.133 513.58,641.467 514.5,638.5C 516.38,638.771 517.713,638.104 518.5,636.5C 521.886,635.472 524.552,633.472 526.5,630.5C 526.328,629.508 526.662,628.842 527.5,628.5C 529.58,627.956 531.58,627.122 533.5,626C 534.381,625.292 535.047,624.458 535.5,623.5C 538.767,622.535 541.1,620.535 542.5,617.5C 547.208,613.793 551.208,609.46 554.5,604.5C 554.833,604.5 555.167,604.5 555.5,604.5C 557.954,602.897 559.954,600.897 561.5,598.5C 565.528,596.472 568.528,593.472 570.5,589.5C 571.708,588.766 573.041,588.433 574.5,588.5C 574.831,586.678 575.498,585.011 576.5,583.5C 582.127,578.899 586.461,573.233 589.5,566.5C 591.929,565.735 593.262,564.069 593.5,561.5C 598.618,552.822 604.118,544.155 610,535.5C 611.828,530.509 613.661,525.509 615.5,520.5C 615.232,518.901 615.566,517.568 616.5,516.5C 617.836,510.874 619.67,505.207 622,499.5C 622.667,485.833 622.667,472.167 622,458.5C 621.617,457.944 621.117,457.611 620.5,457.5C 620.923,455.219 620.256,453.552 618.5,452.5C 618.5,451.167 618.5,449.833 618.5,448.5C 619.833,448.5 621.167,448.5 622.5,448.5C 639.09,460.096 654.756,472.763 669.5,486.5C 670.127,490.273 672.127,493.106 675.5,495C 673.893,496.049 673.227,497.549 673.5,499.5C 675.939,500.053 678.273,500.053 680.5,499.5C 681.754,501.259 681.421,502.759 679.5,504C 680.328,504.915 681.328,505.581 682.5,506C 678.864,506.626 678.864,507.793 682.5,509.5C 683.976,507.429 685.976,506.429 688.5,506.5C 722.601,540.977 749.267,580.643 768.5,625.5C 768.357,627.262 768.691,628.929 769.5,630.5C 768.975,631.192 768.308,631.692 767.5,632C 768.711,633.113 768.711,634.28 767.5,635.5C 768.883,638.076 769.717,637.742 770,634.5C 772.459,637.07 773.459,640.07 773,643.5C 772.5,644 772,644.5 771.5,645C 773.473,645.495 775.473,645.662 777.5,645.5C 783.503,661.171 788.503,677.171 792.5,693.5C 792.073,696.788 792.74,699.788 794.5,702.5C 793.42,705.332 792.42,708.165 791.5,711C 792.841,712.295 794.174,712.795 795.5,712.5C 792.71,715.922 792.877,716.589 796,714.5C 797.579,716.458 797.412,718.458 795.5,720.5C 796.522,721.354 797.355,722.354 798,723.5C 798.724,727.427 799.891,731.094 801.5,734.5C 801.5,735.5 801.5,736.5 801.5,737.5C 800.833,739.819 800.666,742.153 801,744.5C 801.333,744.167 801.667,743.833 802,743.5C 803.394,749.177 803.56,754.844 802.5,760.5C 806.058,779.645 807.391,798.978 806.5,818.5C 805.944,823.311 804.944,828.145 803.5,833C 803.735,833.873 804.069,834.707 804.5,835.5C 803.024,836.88 802.024,838.547 801.5,840.5C 802.434,843.936 803.101,847.436 803.5,851C 803.241,853.454 802.241,855.454 800.5,857C 800.723,862.255 801.056,867.755 801.5,873.5C 798.395,898.011 791.561,921.345 781,943.5C 737.801,1014.82 678.634,1068.32 603.5,1104C 581.767,1116.63 562.6,1132.46 546,1151.5C 540.79,1157.93 536.623,1164.93 533.5,1172.5C 531.755,1174.03 530.755,1176.03 530.5,1178.5C 529.681,1180.77 529.015,1183.11 528.5,1185.5C 526.421,1189.82 525.254,1194.48 525,1199.5C 524.183,1205.02 524.349,1210.35 525.5,1215.5C 526.506,1221.51 527.506,1227.51 528.5,1233.5C 528.079,1237.65 527.746,1241.65 527.5,1245.5C 529.946,1246.43 530.779,1248.09 530,1250.5C 529.667,1250.17 529.333,1249.83 529,1249.5C 528.506,1251.13 528.34,1252.8 528.5,1254.5C 522.369,1255.09 516.536,1254.43 511,1252.5C 510.586,1252.96 510.086,1253.29 509.5,1253.5C 508.352,1251.85 507.019,1250.35 505.5,1249C 507.246,1248.53 508.913,1247.86 510.5,1247C 506.889,1246.73 503.223,1246.9 499.5,1247.5C 497.742,1246.87 496.242,1245.87 495,1244.5C 494.331,1247.03 493.498,1247.03 492.5,1244.5C 493.325,1243.61 494.325,1243.28 495.5,1243.5C 495.5,1241.83 495.5,1240.17 495.5,1238.5C 489.755,1238.79 484.088,1238.29 478.5,1237C 478.258,1234.93 478.591,1232.76 479.5,1230.5C 476.428,1230.82 473.428,1230.48 470.5,1229.5C 471.661,1227.78 471.495,1226.11 470,1224.5C 469.667,1225.5 469.333,1226.5 469,1227.5C 467.303,1225.37 465.136,1224.03 462.5,1223.5C 442.795,1200.33 429.795,1174 423.5,1144.5C 423.192,1125.45 423.525,1106.45 424.5,1087.5C 425.301,1085.96 425.634,1084.29 425.5,1082.5C 427.31,1079.63 428.31,1076.29 428.5,1072.5C 431.267,1059.98 435.934,1048.31 442.5,1037.5C 446.868,1033.96 450.368,1029.62 453,1024.5C 453.667,1025.17 454.333,1025.83 455,1026.5C 454.761,1023.75 454.928,1021.08 455.5,1018.5C 455.5,1018.17 455.5,1017.83 455.5,1017.5C 458.277,1015.32 460.61,1012.65 462.5,1009.5C 462.328,1008.51 462.662,1007.84 463.5,1007.5C 465.255,1006.93 466.922,1006.09 468.5,1005C 471.365,1001.31 474.365,997.808 477.5,994.5C 477.328,993.508 477.662,992.842 478.5,992.5C 481.747,991.588 484.08,989.588 485.5,986.5C 485.5,986.167 485.5,985.833 485.5,985.5C 487.749,984.92 489.415,983.587 490.5,981.5C 492.514,979.155 494.847,977.155 497.5,975.5C 499.5,974.833 501.5,974.167 503.5,973.5C 503.5,972.5 503.5,971.5 503.5,970.5C 505.179,970.715 506.179,970.048 506.5,968.5C 506.5,967.833 506.5,967.167 506.5,966.5C 507.5,966.5 508.5,966.5 509.5,966.5C 511.771,965.316 514.105,964.316 516.5,963.5C 516.5,962.5 516.5,961.5 516.5,960.5C 517.791,960.737 518.791,960.404 519.5,959.5C 519.5,958.5 519.5,957.5 519.5,956.5C 519.833,956.5 520.167,956.5 520.5,956.5C 522.315,955.37 524.315,954.704 526.5,954.5C 528.379,953.659 530.379,953.325 532.5,953.5C 532.5,952.5 532.5,951.5 532.5,950.5C 535.33,950.306 537.996,949.639 540.5,948.5C 540.5,947.5 540.5,946.5 540.5,945.5C 546.334,942.939 552.334,940.606 558.5,938.5C 558.5,937.5 558.5,936.5 558.5,935.5C 560.099,935.768 561.432,935.434 562.5,934.5C 563.183,932.824 564.517,932.157 566.5,932.5C 566.5,931.5 566.5,930.5 566.5,929.5C 567.833,929.5 569.167,929.5 570.5,929.5C 576.489,925.851 582.489,922.184 588.5,918.5C 590.695,919.608 592.695,919.441 594.5,918C 593.833,917.667 593.167,917.333 592.5,917C 593.784,916.316 594.951,916.483 596,917.5C 597.602,915.354 598.768,913.02 599.5,910.5C 600.791,910.737 601.791,910.404 602.5,909.5C 604.042,908.699 605.708,908.366 607.5,908.5C 607.527,906.801 608.194,905.467 609.5,904.5C 610.167,904.5 610.5,904.167 610.5,903.5C 611.833,903.5 613.167,903.5 614.5,903.5C 615.203,901.127 616.536,899.127 618.5,897.5C 619.167,897.5 619.5,897.167 619.5,896.5C 624.239,893.697 627.573,889.697 629.5,884.5C 631.65,882.24 633.817,879.907 636,877.5C 636.483,876.552 636.649,875.552 636.5,874.5C 638.5,872.167 640.5,869.833 642.5,867.5C 644.408,867.117 645.908,866.117 647,864.5C 647.631,860.74 648.131,856.74 648.5,852.5C 648.833,852.5 649.167,852.5 649.5,852.5C 652.04,847.168 653.706,841.502 654.5,835.5C 654.433,834.041 654.766,832.708 655.5,831.5C 656.324,827.688 656.824,823.688 657,819.5C 658,816.5 659,813.5 660,810.5C 660.167,808.167 660.333,805.833 660.5,803.5C 660.471,800.731 659.805,798.397 658.5,796.5C 658.737,795.209 658.404,794.209 657.5,793.5C 656.071,785.573 654.738,777.573 653.5,769.5C 653.611,768.883 653.944,768.383 654.5,768C 653.08,766.508 651.746,765.008 650.5,763.5C 649.153,759.632 647.986,755.632 647,751.5C 644.98,749.449 643.48,747.116 642.5,744.5C 644.133,741.41 643.466,738.91 640.5,737C 640.833,736.667 641.167,736.333 641.5,736C 639.343,735.922 637.343,735.755 635.5,735.5C 636.729,734.719 638.062,734.219 639.5,734C 636.613,733.277 633.947,733.777 631.5,735.5C 632.167,735.833 632.833,736.167 633.5,736.5C 630.956,738.392 630.956,740.225 633.5,742C 632.451,742.492 631.451,742.326 630.5,741.5C 631.016,742.758 630.35,743.758 628.5,744.5C 627.614,743.675 627.281,742.675 627.5,741.5C 626.325,741.281 625.325,741.614 624.5,742.5C 626.139,743.916 626.973,745.583 627,747.5C 626,746.5 625,745.5 624,744.5C 624.311,745.935 624.145,747.268 623.5,748.5C 620.68,749.382 618.014,750.548 615.5,752C 618.474,753.506 618.807,755.172 616.5,757C 613.518,757.498 610.518,757.665 607.5,757.5C 608.49,760.516 609.157,763.35 609.5,766C 606.092,768.376 603.092,771.209 600.5,774.5C 600.863,775.183 601.196,775.85 601.5,776.5C 578.858,797.331 554.191,815.497 527.5,831C 503.519,841.648 481.519,855.315 461.5,872C 446.149,884.992 434.315,900.492 426,918.5C 425.187,920.436 424.687,922.436 424.5,924.5C 423.076,926.515 422.41,928.848 422.5,931.5C 420.943,936.569 420.276,941.902 420.5,947.5C 420.501,951.681 420.834,955.681 421.5,959.5C 422.1,968.232 424.1,976.565 427.5,984.5C 426.037,986.598 426.204,988.598 428,990.5C 429.087,988.068 429.587,988.402 429.5,991.5C 427.857,991.48 426.524,992.147 425.5,993.5C 424.667,992.5 423.833,991.5 423,990.5C 421.989,991.337 420.822,991.67 419.5,991.5C 368.77,967.455 325.437,933.788 289.5,890.5C 289.671,888.007 288.671,886.174 286.5,885C 287.517,883.951 287.684,882.784 287,881.5C 285.493,880.495 284.327,879.162 283.5,877.5C 282.232,878.428 280.899,878.595 279.5,878C 278.202,874.195 275.869,871.361 272.5,869.5C 272.5,869.167 272.5,868.833 272.5,868.5C 271.96,865.53 270.627,863.03 268.5,861C 268.645,860.228 268.978,859.561 269.5,859C 267.285,857.609 267.285,855.943 269.5,854C 266.774,853.818 264.107,853.318 261.5,852.5C 260.537,849.935 259.204,847.602 257.5,845.5C 257.709,844.914 258.043,844.414 258.5,844C 257.09,842.628 255.423,841.795 253.5,841.5C 253.383,839.516 254.05,837.85 255.5,836.5C 254.311,835.571 252.978,835.238 251.5,835.5C 251.512,832.858 250.179,831.525 247.5,831.5C 247.5,830.833 247.5,830.167 247.5,829.5C 246.992,827.135 246.325,824.801 245.5,822.5C 246.902,821.158 246.569,820.324 244.5,820C 245.673,816.89 245.173,816.723 243,819.5C 242.833,819 242.667,818.5 242.5,818C 243.691,816.187 245.024,815.354 246.5,815.5C 240.434,815.782 238.101,813.115 239.5,807.5C 238.833,806.833 238.167,806.167 237.5,805.5C 238.167,805.167 238.833,804.833 239.5,804.5C 239,803.5 238.5,802.5 238,801.5C 236.989,802.337 235.822,802.67 234.5,802.5C 234.267,800.938 233.6,799.605 232.5,798.5C 232.008,796.181 231.008,794.181 229.5,792.5C 229.167,791.833 228.833,791.167 228.5,790.5C 228.472,787.084 227.472,784.084 225.5,781.5C 225.167,780.833 224.833,780.167 224.5,779.5C 224.112,774.074 222.779,769.074 220.5,764.5C 220.073,761.99 219.407,759.657 218.5,757.5C 217.883,757.389 217.383,757.056 217,756.5C 216.367,752.653 215.533,748.986 214.5,745.5C 214.443,744.391 214.11,743.391 213.5,742.5C 213.383,736.214 212.05,730.214 209.5,724.5C 209.822,718.642 209.489,712.975 208.5,707.5C 208.661,704.472 207.994,701.639 206.5,699C 206.645,698.228 206.978,697.561 207.5,697C 206.688,690.915 206.188,684.748 206,678.5C 205.617,677.944 205.117,677.611 204.5,677.5C 203.096,669.341 202.43,661.007 202.5,652.5C 202.382,644.652 203.048,636.985 204.5,629.5C 204.5,628.5 204.5,627.5 204.5,626.5C 205.805,616.998 206.805,607.332 207.5,597.5C 208.351,591.66 209.018,585.66 209.5,579.5C 211.154,572.308 212.487,564.974 213.5,557.5C 216.266,553.007 217.933,548.007 218.5,542.5C 221.931,534.451 224.598,526.118 226.5,517.5C 229.166,511.229 231.833,504.896 234.5,498.5C 235.931,498.119 236.764,497.119 237,495.5C 237.333,495.833 237.667,496.167 238,496.5C 238.7,493.629 239.2,490.629 239.5,487.5C 239.12,485.302 239.787,483.635 241.5,482.5C 245.342,477.341 249.175,472.007 253,466.5C 254.175,462.495 256.009,458.828 258.5,455.5C 260.727,453.393 262.727,451.06 264.5,448.5C 265.167,447.833 265.833,447.167 266.5,446.5C 271.111,443.558 275.111,439.891 278.5,435.5C 280.214,432.472 281.88,429.472 283.5,426.5C 285.908,425.799 288.242,424.799 290.5,423.5C 290.291,422.914 289.957,422.414 289.5,422C 291.119,421.764 292.119,420.931 292.5,419.5C 295.291,418.08 297.624,416.08 299.5,413.5C 300.338,413.158 300.672,412.492 300.5,411.5C 303.689,409.82 307.022,408.486 310.5,407.5C 310.433,406.041 310.766,404.708 311.5,403.5C 314.171,402.276 316.504,400.609 318.5,398.5C 320.042,397.699 321.708,397.366 323.5,397.5C 323.351,396.448 323.517,395.448 324,394.5C 326.844,392.841 329.344,390.841 331.5,388.5C 333.544,387.478 335.544,386.478 337.5,385.5C 337.5,384.833 337.833,384.5 338.5,384.5C 342.297,382.33 346.297,380.33 350.5,378.5C 350.863,377.817 351.196,377.15 351.5,376.5C 351.833,376.5 352.167,376.5 352.5,376.5C 354.434,375.89 356.101,374.89 357.5,373.5C 357.821,371.952 358.821,371.285 360.5,371.5C 362.728,370.407 365.061,369.407 367.5,368.5C 369.567,367.233 371.234,365.567 372.5,363.5C 372.833,363.5 373.167,363.5 373.5,363.5C 375.736,362.454 377.736,361.121 379.5,359.5C 381.777,358.551 383.777,357.218 385.5,355.5C 386.1,354.1 387.1,353.1 388.5,352.5C 390.289,351.123 392.289,350.123 394.5,349.5C 395.552,349.649 396.552,349.483 397.5,349C 399.271,347.476 400.938,345.976 402.5,344.5C 405.757,344.236 407.757,342.57 408.5,339.5C 409.791,339.737 410.791,339.404 411.5,338.5C 414.451,336.229 417.451,333.896 420.5,331.5C 421.386,330.675 421.719,329.675 421.5,328.5C 424.408,327.713 427.074,326.38 429.5,324.5C 430.552,324.649 431.552,324.483 432.5,324C 434.722,321.044 437.055,318.21 439.5,315.5C 441.727,313.269 444.394,311.936 447.5,311.5C 447.285,309.821 447.952,308.821 449.5,308.5C 451.833,307.5 453.5,305.833 454.5,303.5C 455.167,303.5 455.5,303.167 455.5,302.5C 459.517,301.15 462.183,298.483 463.5,294.5C 467.718,291.347 471.884,288.014 476,284.5C 476.772,284.645 477.439,284.978 478,285.5C 479.441,283.695 479.608,281.695 478.5,279.5C 481.335,278.931 483.001,277.264 483.5,274.5C 486.387,273.29 488.72,271.29 490.5,268.5C 491.167,268.5 491.5,268.167 491.5,267.5C 492.75,267.423 493.583,266.756 494,265.5C 494.333,266.167 494.667,266.833 495,267.5C 495.401,264.301 496.234,261.301 497.5,258.5C 500.209,255.792 502.542,252.792 504.5,249.5C 506.982,248.337 508.316,246.337 508.5,243.5C 510.326,241.853 511.66,239.853 512.5,237.5C 515.261,233.742 517.594,229.742 519.5,225.5C 521.245,223.967 522.245,221.967 522.5,219.5C 523.338,219.158 523.672,218.492 523.5,217.5C 525.335,216.878 526.502,215.544 527,213.5C 527.29,211.08 527.79,208.746 528.5,206.5C 529.744,204.337 530.744,202.003 531.5,199.5C 531.796,197.597 532.463,195.93 533.5,194.5C 535.09,192.525 536.257,190.192 537,187.5C 537.22,180.512 539.053,174.012 542.5,168C 541.217,157.426 540.217,146.926 539.5,136.5C 539.789,132.894 539.456,129.394 538.5,126C 540.108,125.342 541.275,125.842 542,127.5C 542.333,126.833 542.667,126.167 543,125.5C 546.107,127.826 549.607,129.159 553.5,129.5 Z"/></g>
<g><path style="opacity:0.246" fill="#d9d9d9" d="M 532.5,111.5 C 534.989,111.241 536.656,112.241 537.5,114.5C 536.167,114.5 534.833,114.5 533.5,114.5C 533.232,116.099 533.566,117.432 534.5,118.5C 535.211,121.678 536.378,124.678 538,127.5C 538.498,130.482 538.665,133.482 538.5,136.5C 539.553,156.232 537.886,175.565 533.5,194.5C 532.463,195.93 531.796,197.597 531.5,199.5C 529.273,201.229 528.273,203.562 528.5,206.5C 527.833,206.5 527.167,206.5 526.5,206.5C 527.896,200.982 529.896,195.648 532.5,190.5C 532.778,184.066 534.278,178.066 537,172.5C 537.833,159.154 537.666,145.821 536.5,132.5C 535.167,129.167 533.833,125.833 532.5,122.5C 531.192,118.685 531.192,115.019 532.5,111.5 Z"/></g>
<g><path style="opacity:0.998" fill="#1c1c1c" d="M 566.5,140.5 C 573.907,147.57 580.573,155.236 586.5,163.5C 585.027,162.26 583.36,161.26 581.5,160.5C 579.776,161.661 578.11,161.495 576.5,160C 577.357,159.311 578.023,158.478 578.5,157.5C 577.071,154.682 574.738,153.349 571.5,153.5C 571.5,154.5 571.5,155.5 571.5,156.5C 570.448,156.649 569.448,156.483 568.5,156C 569.481,153.393 569.814,150.559 569.5,147.5C 567.918,145.423 566.918,143.09 566.5,140.5 Z"/></g>
<g><path style="opacity:1" fill="#191919" d="M 586.5,163.5 C 595.003,173.17 602.003,183.837 607.5,195.5C 605.747,194.075 604.08,192.409 602.5,190.5C 602.167,191.833 601.833,193.167 601.5,194.5C 599.599,193.065 599.266,191.398 600.5,189.5C 598.936,187.397 596.936,186.564 594.5,187C 595.711,187.893 595.711,188.726 594.5,189.5C 591.237,188.631 590.904,187.297 593.5,185.5C 593.194,182.244 593.027,178.911 593,175.5C 592.064,173.292 590.398,171.958 588,171.5C 587.605,168.793 587.105,166.127 586.5,163.5 Z"/></g>
<g><path style="opacity:0.973" fill="#373737" d="M 538.5,136.5 C 538.833,136.5 539.167,136.5 539.5,136.5C 540.217,146.926 541.217,157.426 542.5,168C 539.053,174.012 537.22,180.512 537,187.5C 536.257,190.192 535.09,192.525 533.5,194.5C 537.886,175.565 539.553,156.232 538.5,136.5 Z"/></g>
<g><path style="opacity:0.604" fill="#656565" d="M 531.5,199.5 C 530.744,202.003 529.744,204.337 528.5,206.5C 528.273,203.562 529.273,201.229 531.5,199.5 Z"/></g>
<g><path style="opacity:0.018" fill="#f0f0f0" d="M 526.5,208.5 C 526.771,210.38 526.104,211.713 524.5,212.5C 524.157,210.517 524.824,209.183 526.5,208.5 Z"/></g>
<g><path style="opacity:0.043" fill="#e5e5e5" d="M 524.5,212.5 C 524.634,214.292 524.301,215.958 523.5,217.5C 523.672,218.492 523.338,219.158 522.5,219.5C 521.833,219.833 521.167,220.167 520.5,220.5C 521.334,217.499 522.667,214.832 524.5,212.5 Z"/></g>
<g><path style="opacity:0.882" fill="#525252" d="M 526.5,206.5 C 527.167,206.5 527.833,206.5 528.5,206.5C 527.79,208.746 527.29,211.08 527,213.5C 526.502,215.544 525.335,216.878 523.5,217.5C 524.301,215.958 524.634,214.292 524.5,212.5C 526.104,211.713 526.771,210.38 526.5,208.5C 526.5,207.833 526.5,207.167 526.5,206.5 Z"/></g>
<g><path style="opacity:0.357" fill="#838383" d="M 522.5,219.5 C 522.245,221.967 521.245,223.967 519.5,225.5C 520.038,223.883 520.371,222.216 520.5,220.5C 521.167,220.167 521.833,219.833 522.5,219.5 Z"/></g>
<g><path style="opacity:0.275" fill="#ebebeb" d="M 532.5,111.5 C 534.288,110.378 536.288,110.211 538.5,111C 541.671,113.338 544.338,116.171 546.5,119.5C 552.185,123.35 557.518,127.683 562.5,132.5C 563.386,133.325 563.719,134.325 563.5,135.5C 564.978,135.238 566.311,135.571 567.5,136.5C 569.977,139.286 571.977,142.286 573.5,145.5C 574.675,145.281 575.675,145.614 576.5,146.5C 588.858,160.731 599.858,175.898 609.5,192C 636.346,246.359 634.679,299.859 604.5,352.5C 594.68,367.647 584.18,382.314 573,396.5C 571.414,397.376 569.914,398.376 568.5,399.5C 562.527,408.134 555.861,416.134 548.5,423.5C 547.311,424.429 545.978,424.762 544.5,424.5C 543.348,428.992 540.681,432.325 536.5,434.5C 532.504,439.737 528.171,444.571 523.5,449C 522.552,449.483 521.552,449.649 520.5,449.5C 520.04,452.957 518.04,454.623 514.5,454.5C 514.04,457.957 512.04,459.623 508.5,459.5C 508.5,460.5 508.5,461.5 508.5,462.5C 505.063,463.727 502.063,465.727 499.5,468.5C 498.311,469.429 496.978,469.762 495.5,469.5C 495.5,470.5 495.5,471.5 495.5,472.5C 494.022,472.238 492.689,472.571 491.5,473.5C 487.572,478.78 482.572,482.446 476.5,484.5C 476.719,485.675 476.386,486.675 475.5,487.5C 472.711,489.191 470.377,491.358 468.5,494C 467.552,494.483 466.552,494.649 465.5,494.5C 465.04,497.957 463.04,499.623 459.5,499.5C 459.719,500.675 459.386,501.675 458.5,502.5C 454.063,505.714 450.063,509.38 446.5,513.5C 445.311,514.429 443.978,514.762 442.5,514.5C 442.719,515.675 442.386,516.675 441.5,517.5C 438.943,518.977 436.943,520.977 435.5,523.5C 431.756,525.119 428.756,527.619 426.5,531C 425.552,531.483 424.552,531.649 423.5,531.5C 423.167,534.5 421.5,536.167 418.5,536.5C 418.719,537.675 418.386,538.675 417.5,539.5C 415.444,542.557 412.778,544.891 409.5,546.5C 408.614,547.325 408.281,548.325 408.5,549.5C 407.325,549.281 406.325,549.614 405.5,550.5C 403.859,553.976 401.192,555.976 397.5,556.5C 396.167,559.167 394.833,561.833 393.5,564.5C 392.022,564.238 390.689,564.571 389.5,565.5C 387.079,570.588 383.413,574.254 378.5,576.5C 374.069,583.803 368.735,590.47 362.5,596.5C 353.602,609.35 347.102,623.35 343,638.5C 342.872,645.791 342.038,652.958 340.5,660C 341.746,669.997 343.413,679.83 345.5,689.5C 348.248,697.981 351.248,706.315 354.5,714.5C 359.037,718.702 362.37,723.702 364.5,729.5C 366.653,731.042 368.653,732.708 370.5,734.5C 371.386,733.675 371.719,732.675 371.5,731.5C 372.675,731.719 373.675,731.386 374.5,730.5C 376.002,727.884 378.002,725.884 380.5,724.5C 378.03,728.039 375.697,731.706 373.5,735.5C 371.143,735.663 368.81,735.497 366.5,735C 341.786,704.462 333.453,669.962 341.5,631.5C 342.924,629.485 343.59,627.152 343.5,624.5C 344.941,618.886 347.107,613.552 350,608.5C 360.221,593.28 371.555,578.946 384,565.5C 409.427,541.079 435.261,516.912 461.5,493C 483.744,475.39 505.744,457.556 527.5,439.5C 530.903,437.1 533.57,434.1 535.5,430.5C 538.167,427.5 540.833,424.5 543.5,421.5C 548.194,418.806 551.861,415.139 554.5,410.5C 561.071,402.417 567.904,394.417 575,386.5C 581.774,378.232 587.941,369.566 593.5,360.5C 601.346,349.473 608.18,337.806 614,325.5C 614.822,322.883 615.322,320.216 615.5,317.5C 616.877,315.711 617.877,313.711 618.5,311.5C 619.924,309.485 620.59,307.152 620.5,304.5C 620.5,304.167 620.5,303.833 620.5,303.5C 621.924,301.485 622.59,299.152 622.5,296.5C 625.558,279.943 626.224,263.277 624.5,246.5C 624.59,243.848 623.924,241.515 622.5,239.5C 621.974,233.392 620.807,227.392 619,221.5C 615.649,212.612 611.816,203.946 607.5,195.5C 602.003,183.837 595.003,173.17 586.5,163.5C 580.573,155.236 573.907,147.57 566.5,140.5C 563.021,135.676 558.687,132.01 553.5,129.5C 553.141,127.629 552.141,126.129 550.5,125C 547.335,122.665 544.335,120.165 541.5,117.5C 540.738,115.738 539.404,114.738 537.5,114.5C 536.656,112.241 534.989,111.241 532.5,111.5 Z"/></g>
<g><path style="opacity:0.02" fill="#e3e3e3" d="M 520.5,220.5 C 520.371,222.216 520.038,223.883 519.5,225.5C 517.594,229.742 515.261,233.742 512.5,237.5C 511.5,238.167 510.5,238.833 509.5,239.5C 512.251,232.512 515.918,226.179 520.5,220.5 Z"/></g>
<g><path style="opacity:0.443" fill="#8f8f8f" d="M 512.5,237.5 C 511.66,239.853 510.326,241.853 508.5,243.5C 508.557,242.391 508.89,241.391 509.5,240.5C 509.5,240.167 509.5,239.833 509.5,239.5C 510.5,238.833 511.5,238.167 512.5,237.5 Z"/></g>
<g><path style="opacity:0.702" fill="#676767" d="M 508.5,243.5 C 508.316,246.337 506.982,248.337 504.5,249.5C 505.475,247.205 506.808,245.205 508.5,243.5 Z"/></g>
<g><path style="opacity:0.988" fill="#747474" d="M 622.5,239.5 C 623.924,241.515 624.59,243.848 624.5,246.5C 623.076,244.485 622.41,242.152 622.5,239.5 Z"/></g>
<g><path style="opacity:0.569" fill="#848484" d="M 504.5,249.5 C 502.542,252.792 500.209,255.792 497.5,258.5C 498.694,254.637 501.027,251.637 504.5,249.5 Z"/></g>
<g><path style="opacity:0.012" fill="#ececec" d="M 509.5,240.5 C 508.89,241.391 508.557,242.391 508.5,243.5C 506.808,245.205 505.475,247.205 504.5,249.5C 501.027,251.637 498.694,254.637 497.5,258.5C 495.132,261.211 493.132,264.211 491.5,267.5C 491.5,268.167 491.167,268.5 490.5,268.5C 488.938,268.733 487.605,269.4 486.5,270.5C 490.47,264.583 494.47,258.583 498.5,252.5C 501.899,248.108 505.565,244.108 509.5,240.5 Z"/></g>
<g><path style="opacity:0.996" fill="#373737" d="M 497.5,258.5 C 496.234,261.301 495.401,264.301 495,267.5C 494.667,266.833 494.333,266.167 494,265.5C 493.583,266.756 492.75,267.423 491.5,267.5C 493.132,264.211 495.132,261.211 497.5,258.5 Z"/></g>
<g><path style="opacity:0.017" fill="#eaeaea" d="M 486.5,270.5 C 483.614,273.246 480.947,276.246 478.5,279.5C 476.486,281.845 474.153,283.845 471.5,285.5C 472.336,282.813 473.836,280.48 476,278.5C 478.911,274.946 482.411,272.28 486.5,270.5 Z"/></g>
<g><path style="opacity:0.69" fill="#626262" d="M 490.5,268.5 C 488.72,271.29 486.387,273.29 483.5,274.5C 483.001,277.264 481.335,278.931 478.5,279.5C 480.947,276.246 483.614,273.246 486.5,270.5C 487.605,269.4 488.938,268.733 490.5,268.5 Z"/></g>
<g><path style="opacity:0.8" fill="#444444" d="M 478.5,279.5 C 479.608,281.695 479.441,283.695 478,285.5C 477.439,284.978 476.772,284.645 476,284.5C 471.884,288.014 467.718,291.347 463.5,294.5C 465.947,291.246 468.614,288.246 471.5,285.5C 474.153,283.845 476.486,281.845 478.5,279.5 Z"/></g>
<g><path style="opacity:0.02" fill="#e8e8e8" d="M 471.5,285.5 C 468.614,288.246 465.947,291.246 463.5,294.5C 462.833,294.833 462.167,295.167 461.5,295.5C 462.833,292.833 464.167,290.167 465.5,287.5C 467.718,287.386 469.718,286.72 471.5,285.5 Z"/></g>
<g><path style="opacity:0.902" fill="#525252" d="M 463.5,294.5 C 462.183,298.483 459.517,301.15 455.5,302.5C 455.833,301.833 456.167,301.167 456.5,300.5C 458.833,299.5 460.5,297.833 461.5,295.5C 462.167,295.167 462.833,294.833 463.5,294.5 Z"/></g>
<g><path style="opacity:0.049" fill="#e9e9e9" d="M 461.5,295.5 C 460.5,297.833 458.833,299.5 456.5,300.5C 456.833,297.5 458.5,295.833 461.5,295.5 Z"/></g>
<g><path style="opacity:0.017" fill="#e8e8e8" d="M 456.5,300.5 C 456.167,301.167 455.833,301.833 455.5,302.5C 455.5,303.167 455.167,303.5 454.5,303.5C 453.167,304.167 451.833,304.833 450.5,305.5C 450.5,304.5 450.5,303.5 450.5,302.5C 452.718,302.386 454.718,301.72 456.5,300.5 Z"/></g>
<g><path style="opacity:0.91" fill="#707070" d="M 622.5,296.5 C 622.59,299.152 621.924,301.485 620.5,303.5C 620.41,300.848 621.076,298.515 622.5,296.5 Z"/></g>
<g><path style="opacity:0.443" fill="#858585" d="M 454.5,303.5 C 453.5,305.833 451.833,307.5 449.5,308.5C 449.557,307.391 449.89,306.391 450.5,305.5C 451.833,304.833 453.167,304.167 454.5,303.5 Z"/></g>
<g><path style="opacity:0.029" fill="#dddddd" d="M 450.5,305.5 C 449.89,306.391 449.557,307.391 449.5,308.5C 447.952,308.821 447.285,309.821 447.5,311.5C 444.394,311.936 441.727,313.269 439.5,315.5C 439.5,314.5 439.5,313.5 439.5,312.5C 442.973,309.926 446.64,307.592 450.5,305.5 Z"/></g>
<g><path style="opacity:0.945" fill="#898989" d="M 620.5,304.5 C 620.59,307.152 619.924,309.485 618.5,311.5C 618.41,308.848 619.076,306.515 620.5,304.5 Z"/></g>
<g><path style="opacity:0.592" fill="#9d9d9d" d="M 439.5,315.5 C 437.055,318.21 434.722,321.044 432.5,324C 431.552,324.483 430.552,324.649 429.5,324.5C 430.5,323.167 431.5,321.833 432.5,320.5C 433.695,317.313 436.028,315.647 439.5,315.5 Z"/></g>
<g><path style="opacity:1" fill="#121212" d="M 615.5,317.5 C 615.322,320.216 614.822,322.883 614,325.5C 608.18,337.806 601.346,349.473 593.5,360.5C 593.726,357.751 593.393,355.084 592.5,352.5C 593.025,351.808 593.692,351.308 594.5,351C 590.647,350.338 590.647,349.504 594.5,348.5C 596.135,349.046 597.801,349.38 599.5,349.5C 600.173,345.482 600.173,341.315 599.5,337C 600.5,336.667 601.5,336.333 602.5,336C 601.027,335.29 600.36,334.124 600.5,332.5C 602.924,332.808 605.257,332.474 607.5,331.5C 607.571,327.384 608.071,323.384 609,319.5C 610.016,318.366 610.683,318.699 611,320.5C 612.4,319.252 613.9,318.252 615.5,317.5 Z"/></g>
<g><path style="opacity:0.027" fill="#dddddd" d="M 432.5,320.5 C 431.5,321.833 430.5,323.167 429.5,324.5C 427.074,326.38 424.408,327.713 421.5,328.5C 421.719,329.675 421.386,330.675 420.5,331.5C 417.451,333.896 414.451,336.229 411.5,338.5C 410.167,338.5 408.833,338.5 407.5,338.5C 407.512,341.142 406.179,342.475 403.5,342.5C 403.281,341.325 403.614,340.325 404.5,339.5C 413.306,332.355 422.64,326.022 432.5,320.5 Z"/></g>
<g><path style="opacity:0.902" fill="#535353" d="M 411.5,338.5 C 410.791,339.404 409.791,339.737 408.5,339.5C 407.757,342.57 405.757,344.236 402.5,344.5C 402.833,343.833 403.167,343.167 403.5,342.5C 406.179,342.475 407.512,341.142 407.5,338.5C 408.833,338.5 410.167,338.5 411.5,338.5 Z"/></g>
<g><path style="opacity:0.078" fill="#e4e4e4" d="M 403.5,342.5 C 403.167,343.167 402.833,343.833 402.5,344.5C 399.124,345.18 396.458,346.847 394.5,349.5C 392.289,350.123 390.289,351.123 388.5,352.5C 388.5,351.5 388.5,350.5 388.5,349.5C 393.337,346.835 398.337,344.501 403.5,342.5 Z"/></g>
<g><path style="opacity:0.663" fill="#6b6b6b" d="M 402.5,344.5 C 400.938,345.976 399.271,347.476 397.5,349C 396.552,349.483 395.552,349.649 394.5,349.5C 396.458,346.847 399.124,345.18 402.5,344.5 Z"/></g>
<g><path style="opacity:0.012" fill="#ebebeb" d="M 388.5,352.5 C 387.1,353.1 386.1,354.1 385.5,355.5C 383.446,355.365 381.779,356.032 380.5,357.5C 380.5,356.5 380.5,355.5 380.5,354.5C 383.167,353.833 385.833,353.167 388.5,352.5 Z"/></g>
<g><path style="opacity:0.055" fill="#ececec" d="M 380.5,357.5 C 380.167,358.167 379.833,358.833 379.5,359.5C 376.634,359.633 374.634,360.966 373.5,363.5C 373.167,363.5 372.833,363.5 372.5,363.5C 369.711,365.211 366.711,366.545 363.5,367.5C 363.414,366.504 363.748,365.671 364.5,365C 369.934,362.513 375.267,360.013 380.5,357.5 Z"/></g>
<g><path style="opacity:0.682" fill="#777777" d="M 385.5,355.5 C 383.777,357.218 381.777,358.551 379.5,359.5C 379.833,358.833 380.167,358.167 380.5,357.5C 381.779,356.032 383.446,355.365 385.5,355.5 Z"/></g>
<g><path style="opacity:0.604" fill="#868686" d="M 379.5,359.5 C 377.736,361.121 375.736,362.454 373.5,363.5C 374.634,360.966 376.634,359.633 379.5,359.5 Z"/></g>
<g><path style="opacity:0.914" fill="#585858" d="M 372.5,363.5 C 371.234,365.567 369.567,367.233 367.5,368.5C 365.061,369.407 362.728,370.407 360.5,371.5C 361.147,369.859 362.147,368.526 363.5,367.5C 366.711,366.545 369.711,365.211 372.5,363.5 Z"/></g>
<g><path style="opacity:0.808" fill="#4c4c4c" d="M 357.5,373.5 C 356.101,374.89 354.434,375.89 352.5,376.5C 353.344,374.241 355.011,373.241 357.5,373.5 Z"/></g>
<g><path style="opacity:0.694" fill="#646464" d="M 351.5,376.5 C 351.196,377.15 350.863,377.817 350.5,378.5C 346.297,380.33 342.297,382.33 338.5,384.5C 342.01,380.607 346.344,377.94 351.5,376.5 Z"/></g>
<g><path style="opacity:0.024" fill="#e2e2e2" d="M 363.5,367.5 C 362.147,368.526 361.147,369.859 360.5,371.5C 358.821,371.285 357.821,371.952 357.5,373.5C 355.011,373.241 353.344,374.241 352.5,376.5C 352.167,376.5 351.833,376.5 351.5,376.5C 346.344,377.94 342.01,380.607 338.5,384.5C 337.833,384.5 337.5,384.833 337.5,385.5C 335.114,385.259 333.114,385.925 331.5,387.5C 331.5,386.5 331.5,385.5 331.5,384.5C 332.978,384.762 334.311,384.429 335.5,383.5C 342.795,379.431 349.795,374.931 356.5,370C 358.652,368.587 360.986,367.754 363.5,367.5 Z"/></g>
<g><path style="opacity:0.565" fill="#8d8d8d" d="M 337.5,385.5 C 335.544,386.478 333.544,387.478 331.5,388.5C 331.5,388.167 331.5,387.833 331.5,387.5C 333.114,385.925 335.114,385.259 337.5,385.5 Z"/></g>
<g><path style="opacity:0.018" fill="#f2f2f2" d="M 331.5,387.5 C 331.5,387.833 331.5,388.167 331.5,388.5C 328.741,389.642 326.074,390.976 323.5,392.5C 323.5,391.5 323.5,390.5 323.5,389.5C 326.167,388.833 328.833,388.167 331.5,387.5 Z"/></g>
<g><path style="opacity:0.51" fill="#707070" d="M 331.5,388.5 C 329.344,390.841 326.844,392.841 324,394.5C 323.517,395.448 323.351,396.448 323.5,397.5C 321.708,397.366 320.042,397.699 318.5,398.5C 320.041,396.498 321.708,394.498 323.5,392.5C 326.074,390.976 328.741,389.642 331.5,388.5 Z"/></g>
<g><path style="opacity:0.02" fill="#eaeaea" d="M 323.5,392.5 C 321.708,394.498 320.041,396.498 318.5,398.5C 316.167,399.167 313.833,399.833 311.5,400.5C 311.5,401.5 311.5,402.5 311.5,403.5C 308.615,404.382 305.948,405.716 303.5,407.5C 305.262,404.58 307.596,402.08 310.5,400C 314.575,396.958 318.909,394.458 323.5,392.5 Z"/></g>
<g><path style="opacity:0.675" fill="#636363" d="M 318.5,398.5 C 316.504,400.609 314.171,402.276 311.5,403.5C 311.5,402.5 311.5,401.5 311.5,400.5C 313.833,399.833 316.167,399.167 318.5,398.5 Z"/></g>
<g><path style="opacity:0.965" fill="#444444" d="M 311.5,403.5 C 310.766,404.708 310.433,406.041 310.5,407.5C 307.022,408.486 303.689,409.82 300.5,411.5C 301.853,410.474 302.853,409.141 303.5,407.5C 305.948,405.716 308.615,404.382 311.5,403.5 Z"/></g>
<g><path style="opacity:0.071" fill="#dbdbdb" d="M 303.5,407.5 C 302.853,409.141 301.853,410.474 300.5,411.5C 300.672,412.492 300.338,413.158 299.5,413.5C 297.285,414.532 295.285,415.866 293.5,417.5C 295.79,413.21 299.123,409.877 303.5,407.5 Z"/></g>
<g><path style="opacity:0.03" fill="#e2e2e2" d="M 293.5,417.5 C 293.167,418.167 292.833,418.833 292.5,419.5C 291.292,420.234 289.959,420.567 288.5,420.5C 288.5,421.5 288.5,422.5 288.5,423.5C 287.041,423.433 285.708,423.766 284.5,424.5C 286.176,420.492 289.176,418.159 293.5,417.5 Z"/></g>
<g><path style="opacity:0.769" fill="#626262" d="M 299.5,413.5 C 297.624,416.08 295.291,418.08 292.5,419.5C 292.833,418.833 293.167,418.167 293.5,417.5C 295.285,415.866 297.285,414.532 299.5,413.5 Z"/></g>
<g><path style="opacity:0.969" fill="#9c9c9c" d="M 554.5,410.5 C 551.861,415.139 548.194,418.806 543.5,421.5C 546.86,417.473 550.527,413.806 554.5,410.5 Z"/></g>
<g><path style="opacity:0.973" fill="#4a4a4a" d="M 292.5,419.5 C 292.119,420.931 291.119,421.764 289.5,422C 289.957,422.414 290.291,422.914 290.5,423.5C 288.242,424.799 285.908,425.799 283.5,426.5C 283.833,425.833 284.167,425.167 284.5,424.5C 285.708,423.766 287.041,423.433 288.5,423.5C 288.5,422.5 288.5,421.5 288.5,420.5C 289.959,420.567 291.292,420.234 292.5,419.5 Z"/></g>
<g><path style="opacity:0.031" fill="#e0e0e0" d="M 284.5,424.5 C 284.167,425.167 283.833,425.833 283.5,426.5C 277.852,433.15 272.186,439.817 266.5,446.5C 265.833,447.167 265.167,447.833 264.5,448.5C 263.391,448.557 262.391,448.89 261.5,449.5C 262.655,445.919 264.988,443.586 268.5,442.5C 272.02,436.462 276.186,430.796 281,425.5C 282.011,424.663 283.178,424.33 284.5,424.5 Z"/></g>
<g><path style="opacity:0.933" fill="#a7a7a7" d="M 535.5,430.5 C 533.57,434.1 530.903,437.1 527.5,439.5C 529.43,435.9 532.097,432.9 535.5,430.5 Z"/></g>
<g><path style="opacity:0.871" fill="#474747" d="M 283.5,426.5 C 281.88,429.472 280.214,432.472 278.5,435.5C 275.111,439.891 271.111,443.558 266.5,446.5C 272.186,439.817 277.852,433.15 283.5,426.5 Z"/></g>
<g><path style="opacity:0.118" fill="#efefef" d="M 261.5,449.5 C 261.068,450.71 260.401,451.71 259.5,452.5C 259.285,450.821 259.952,449.821 261.5,449.5 Z"/></g>
<g><path style="opacity:0.773" fill="#6e6e6e" d="M 264.5,448.5 C 262.727,451.06 260.727,453.393 258.5,455.5C 258.557,454.391 258.89,453.391 259.5,452.5C 260.401,451.71 261.068,450.71 261.5,449.5C 262.391,448.89 263.391,448.557 264.5,448.5 Z"/></g>
<g><path style="opacity:0.776" fill="#636363" d="M 258.5,455.5 C 256.009,458.828 254.175,462.495 253,466.5C 249.175,472.007 245.342,477.341 241.5,482.5C 242.623,478.92 244.29,475.586 246.5,472.5C 246.527,470.801 247.194,469.467 248.5,468.5C 250.928,463.53 254.261,459.197 258.5,455.5 Z"/></g>
<g><path style="opacity:0.022" fill="#f0f0f0" d="M 259.5,452.5 C 258.89,453.391 258.557,454.391 258.5,455.5C 254.261,459.197 250.928,463.53 248.5,468.5C 250.032,464.425 251.865,460.425 254,456.5C 255.451,454.536 257.284,453.203 259.5,452.5 Z"/></g>
<g><path style="opacity:0.757" fill="#494949" d="M 620.5,457.5 C 621.117,457.611 621.617,457.944 622,458.5C 622.667,472.167 622.667,485.833 622,499.5C 619.67,505.207 617.836,510.874 616.5,516.5C 617.167,511.833 617.833,507.167 618.5,502.5C 619.793,501.158 620.626,499.491 621,497.5C 621.797,484.122 621.63,470.788 620.5,457.5 Z"/></g>
<g><path style="opacity:0.063" fill="#d6d6d6" d="M 246.5,472.5 C 244.29,475.586 242.623,478.92 241.5,482.5C 239.787,483.635 239.12,485.302 239.5,487.5C 237.466,490.908 235.799,494.575 234.5,498.5C 231.833,504.896 229.166,511.229 226.5,517.5C 225.065,518.913 224.065,520.58 223.5,522.5C 223.34,520.801 223.506,519.134 224,517.5C 226.666,511.417 229.5,505.417 232.5,499.5C 234.461,493.06 236.628,486.727 239,480.5C 241.062,477.297 243.562,474.631 246.5,472.5 Z"/></g>
<g><path style="opacity:0.988" fill="#3b3b3b" d="M 239.5,487.5 C 239.2,490.629 238.7,493.629 238,496.5C 237.667,496.167 237.333,495.833 237,495.5C 236.764,497.119 235.931,498.119 234.5,498.5C 235.799,494.575 237.466,490.908 239.5,487.5 Z"/></g>
<g><path style="opacity:0.997" fill="#1b1b1b" d="M 669.5,486.5 C 676.536,492.535 682.869,499.202 688.5,506.5C 685.976,506.429 683.976,507.429 682.5,509.5C 678.864,507.793 678.864,506.626 682.5,506C 681.328,505.581 680.328,504.915 679.5,504C 681.421,502.759 681.754,501.259 680.5,499.5C 678.273,500.053 675.939,500.053 673.5,499.5C 673.227,497.549 673.893,496.049 675.5,495C 672.127,493.106 670.127,490.273 669.5,486.5 Z"/></g>
<g><path style="opacity:0.034" fill="#f1f1f1" d="M 618.5,502.5 C 617.833,507.167 617.167,511.833 616.5,516.5C 615.566,517.568 615.232,518.901 615.5,520.5C 614.833,520.5 614.167,520.5 613.5,520.5C 614.144,513.975 615.811,507.975 618.5,502.5 Z"/></g>
<g><path style="opacity:0.631" fill="#6e6e6e" d="M 226.5,517.5 C 224.598,526.118 221.931,534.451 218.5,542.5C 219.801,535.69 221.468,529.023 223.5,522.5C 224.065,520.58 225.065,518.913 226.5,517.5 Z"/></g>
<g><path style="opacity:0.009" fill="#f6f6f6" d="M 223.5,522.5 C 221.468,529.023 219.801,535.69 218.5,542.5C 217.167,544.5 215.833,546.5 214.5,548.5C 216.453,540.514 218.786,532.68 221.5,525C 221.684,523.624 222.351,522.791 223.5,522.5 Z"/></g>
<g><path style="opacity:0.235" fill="#c8c8c8" d="M 613.5,520.5 C 614.167,520.5 614.833,520.5 615.5,520.5C 613.661,525.509 611.828,530.509 610,535.5C 604.118,544.155 598.618,552.822 593.5,561.5C 594.234,560.292 594.567,558.959 594.5,557.5C 599.019,549.172 603.686,540.838 608.5,532.5C 610.395,528.517 612.061,524.517 613.5,520.5 Z"/></g>
<g><path style="opacity:0.722" fill="#707070" d="M 218.5,542.5 C 217.933,548.007 216.266,553.007 213.5,557.5C 214.038,555.883 214.371,554.216 214.5,552.5C 214.5,551.167 214.5,549.833 214.5,548.5C 215.833,546.5 217.167,544.5 218.5,542.5 Z"/></g>
<g><path style="opacity:0.032" fill="#f5f5f5" d="M 594.5,557.5 C 594.567,558.959 594.234,560.292 593.5,561.5C 593.167,561.5 592.833,561.5 592.5,561.5C 592.157,559.517 592.824,558.183 594.5,557.5 Z"/></g>
<g><path style="opacity:0.757" fill="#666666" d="M 592.5,561.5 C 592.833,561.5 593.167,561.5 593.5,561.5C 593.262,564.069 591.929,565.735 589.5,566.5C 590.248,564.668 591.248,563.001 592.5,561.5 Z"/></g>
<g><path style="opacity:0.851" fill="#575757" d="M 589.5,566.5 C 586.461,573.233 582.127,578.899 576.5,583.5C 580.699,577.698 585.033,572.031 589.5,566.5 Z"/></g>
<g><path style="opacity:0.014" fill="#ededed" d="M 592.5,561.5 C 591.248,563.001 590.248,564.668 589.5,566.5C 585.033,572.031 580.699,577.698 576.5,583.5C 575.609,584.11 574.609,584.443 573.5,584.5C 578.622,578.293 583.289,571.627 587.5,564.5C 588.94,563.048 590.606,562.048 592.5,561.5 Z"/></g>
<g><path style="opacity:0.149" fill="#ececec" d="M 214.5,552.5 C 214.371,554.216 214.038,555.883 213.5,557.5C 212.487,564.974 211.154,572.308 209.5,579.5C 208.883,579.611 208.383,579.944 208,580.5C 207.501,586.157 207.334,591.824 207.5,597.5C 207.167,597.5 206.833,597.5 206.5,597.5C 205.833,597.833 205.167,598.167 204.5,598.5C 206.008,591.685 207.008,584.685 207.5,577.5C 209.819,571.803 211.152,565.803 211.5,559.5C 211.938,556.705 212.938,554.372 214.5,552.5 Z"/></g>
<g><path style="opacity:0.02" fill="#f0f0f0" d="M 573.5,584.5 C 572.473,586.184 571.473,587.851 570.5,589.5C 570.167,589.5 569.833,589.5 569.5,589.5C 569.738,586.931 571.071,585.265 573.5,584.5 Z"/></g>
<g><path style="opacity:0.847" fill="#6a6a6a" d="M 576.5,583.5 C 575.498,585.011 574.831,586.678 574.5,588.5C 573.041,588.433 571.708,588.766 570.5,589.5C 571.473,587.851 572.473,586.184 573.5,584.5C 574.609,584.443 575.609,584.11 576.5,583.5 Z"/></g>
<g><path style="opacity:0.018" fill="#efefef" d="M 569.5,589.5 C 568.288,592.107 566.288,593.774 563.5,594.5C 563.414,593.504 563.748,592.671 564.5,592C 565.9,590.562 567.567,589.729 569.5,589.5 Z"/></g>
<g><path style="opacity:0.78" fill="#5a5a5a" d="M 209.5,579.5 C 209.018,585.66 208.351,591.66 207.5,597.5C 207.334,591.824 207.501,586.157 208,580.5C 208.383,579.944 208.883,579.611 209.5,579.5 Z"/></g>
<g><path style="opacity:0.553" fill="#797979" d="M 569.5,589.5 C 569.833,589.5 570.167,589.5 570.5,589.5C 568.528,593.472 565.528,596.472 561.5,598.5C 562.167,597.167 562.833,595.833 563.5,594.5C 566.288,593.774 568.288,592.107 569.5,589.5 Z"/></g>
<g><path style="opacity:0.043" fill="#f1f1f1" d="M 563.5,594.5 C 562.833,595.833 562.167,597.167 561.5,598.5C 560.609,599.11 559.609,599.443 558.5,599.5C 558.369,598.761 558.536,598.094 559,597.5C 560.4,596.252 561.9,595.252 563.5,594.5 Z"/></g>
<g><path style="opacity:0.051" fill="#ebebeb" d="M 558.5,599.5 C 557.473,601.184 556.473,602.851 555.5,604.5C 555.167,604.5 554.833,604.5 554.5,604.5C 554.738,601.931 556.071,600.265 558.5,599.5 Z"/></g>
<g><path style="opacity:0.549" fill="#7e7e7e" d="M 561.5,598.5 C 559.954,600.897 557.954,602.897 555.5,604.5C 556.473,602.851 557.473,601.184 558.5,599.5C 559.609,599.443 560.609,599.11 561.5,598.5 Z"/></g>
<g><path style="opacity:0.043" fill="#d9d9d9" d="M 554.5,604.5 C 551.208,609.46 547.208,613.793 542.5,617.5C 539.891,619.154 537.558,621.154 535.5,623.5C 534.167,623.833 532.833,624.167 531.5,624.5C 531.5,623.5 531.5,622.5 531.5,621.5C 539.284,618.062 545.618,612.729 550.5,605.5C 551.689,604.571 553.022,604.238 554.5,604.5 Z"/></g>
<g><path style="opacity:0.431" fill="#a3a3a3" d="M 206.5,597.5 C 205.127,607.094 204.46,616.761 204.5,626.5C 204.5,627.5 204.5,628.5 204.5,629.5C 204.167,629.5 203.833,629.5 203.5,629.5C 203.32,620.472 203.653,611.472 204.5,602.5C 204.5,601.167 204.5,599.833 204.5,598.5C 205.167,598.167 205.833,597.833 206.5,597.5 Z"/></g>
<g><path style="opacity:0.725" fill="#434343" d="M 206.5,597.5 C 206.833,597.5 207.167,597.5 207.5,597.5C 206.805,607.332 205.805,616.998 204.5,626.5C 204.46,616.761 205.127,607.094 206.5,597.5 Z"/></g>
<g><path style="opacity:0.529" fill="#676767" d="M 542.5,617.5 C 541.1,620.535 538.767,622.535 535.5,623.5C 537.558,621.154 539.891,619.154 542.5,617.5 Z"/></g>
<g><path style="opacity:0.588" fill="#6a6a6a" d="M 535.5,623.5 C 535.047,624.458 534.381,625.292 533.5,626C 531.58,627.122 529.58,627.956 527.5,628.5C 528.5,627.167 529.5,625.833 530.5,624.5C 530.833,624.5 531.167,624.5 531.5,624.5C 532.833,624.167 534.167,623.833 535.5,623.5 Z"/></g>
<g><path style="opacity:0.039" fill="#ececec" d="M 530.5,624.5 C 529.5,625.833 528.5,627.167 527.5,628.5C 526.662,628.842 526.328,629.508 526.5,630.5C 523.863,631.782 521.196,633.115 518.5,634.5C 518.5,633.5 518.5,632.5 518.5,631.5C 521.723,631.453 524.057,629.953 525.5,627C 526.9,625.562 528.567,624.729 530.5,624.5 Z"/></g>
<g><path style="opacity:0.941" fill="#979797" d="M 343.5,624.5 C 343.59,627.152 342.924,629.485 341.5,631.5C 341.41,628.848 342.076,626.515 343.5,624.5 Z"/></g>
<g><path style="opacity:0.529" fill="#7c7c7c" d="M 526.5,630.5 C 524.552,633.472 521.886,635.472 518.5,636.5C 517.391,636.557 516.391,636.89 515.5,637.5C 515.557,636.391 515.89,635.391 516.5,634.5C 517.167,634.5 517.833,634.5 518.5,634.5C 521.196,633.115 523.863,631.782 526.5,630.5 Z"/></g>
<g><path style="opacity:1" fill="#1f1f1f" d="M 768.5,625.5 C 771.493,632.073 774.493,638.74 777.5,645.5C 775.473,645.662 773.473,645.495 771.5,645C 772,644.5 772.5,644 773,643.5C 773.459,640.07 772.459,637.07 770,634.5C 769.717,637.742 768.883,638.076 767.5,635.5C 768.711,634.28 768.711,633.113 767.5,632C 768.308,631.692 768.975,631.192 769.5,630.5C 768.691,628.929 768.357,627.262 768.5,625.5 Z"/></g>
<g><path style="opacity:0.076" fill="#f2f2f2" d="M 204.5,602.5 C 203.653,611.472 203.32,620.472 203.5,629.5C 200.595,645.797 200.928,661.797 204.5,677.5C 204.187,687.678 205.187,697.678 207.5,707.5C 207.392,712.87 207.725,718.203 208.5,723.5C 206.708,718.255 205.874,712.588 206,706.5C 205,703.5 204,700.5 203,697.5C 202.972,688.338 202.306,679.338 201,670.5C 200.333,658.167 200.333,645.833 201,633.5C 202.282,623.933 202.949,614.266 203,604.5C 203.278,603.584 203.778,602.918 204.5,602.5 Z"/></g>
<g><path style="opacity:0.997" fill="#282828" d="M 518.5,636.5 C 517.713,638.104 516.38,638.771 514.5,638.5C 513.58,641.467 512.08,644.133 510,646.5C 508.374,646.146 506.541,646.146 504.5,646.5C 505.209,645.596 506.209,645.263 507.5,645.5C 507.5,644.5 507.5,643.5 507.5,642.5C 508.552,642.649 509.552,642.483 510.5,642C 512.202,640.408 513.868,638.908 515.5,637.5C 516.391,636.89 517.391,636.557 518.5,636.5 Z"/></g>
<g><path style="opacity:0.114" fill="#cbcbcb" d="M 516.5,634.5 C 515.89,635.391 515.557,636.391 515.5,637.5C 513.868,638.908 512.202,640.408 510.5,642C 509.552,642.483 508.552,642.649 507.5,642.5C 507.5,643.5 507.5,644.5 507.5,645.5C 506.209,645.263 505.209,645.596 504.5,646.5C 502.302,648.098 499.969,649.431 497.5,650.5C 495.034,651.298 493.034,652.631 491.5,654.5C 491.167,654.5 490.833,654.5 490.5,654.5C 490.5,653.5 490.5,652.5 490.5,651.5C 492.737,650.551 495.071,649.884 497.5,649.5C 497.5,648.5 497.5,647.5 497.5,646.5C 500.167,645.833 502.833,645.167 505.5,644.5C 505.5,643.5 505.5,642.5 505.5,641.5C 506.978,641.762 508.311,641.429 509.5,640.5C 511.129,637.639 513.463,635.639 516.5,634.5 Z"/></g>
<g><path style="opacity:0.604" fill="#6e6e6e" d="M 203.5,629.5 C 203.833,629.5 204.167,629.5 204.5,629.5C 203.048,636.985 202.382,644.652 202.5,652.5C 202.43,661.007 203.096,669.341 204.5,677.5C 200.928,661.797 200.595,645.797 203.5,629.5 Z"/></g>
<g><path style="opacity:0.69" fill="#737373" d="M 497.5,650.5 C 496.147,652.738 494.147,654.071 491.5,654.5C 493.034,652.631 495.034,651.298 497.5,650.5 Z"/></g>
<g><path style="opacity:0.18" fill="#dfdfdf" d="M 488.5,654.5 C 487.952,656.532 486.619,657.532 484.5,657.5C 484.5,658.5 484.5,659.5 484.5,660.5C 480.711,661.564 477.045,662.897 473.5,664.5C 473.414,663.504 473.748,662.671 474.5,662C 477.102,660.86 479.769,660.027 482.5,659.5C 482.5,658.5 482.5,657.5 482.5,656.5C 484.718,656.386 486.718,655.72 488.5,654.5 Z"/></g>
<g><path style="opacity:0.039" fill="#ededed" d="M 472.5,664.5 C 470.742,666.887 468.409,668.554 465.5,669.5C 465.5,668.5 465.5,667.5 465.5,666.5C 467.929,666.116 470.263,665.449 472.5,664.5 Z"/></g>
<g><path style="opacity:0.553" fill="#6e6e6e" d="M 488.5,654.5 C 489.167,654.5 489.833,654.5 490.5,654.5C 490.833,654.5 491.167,654.5 491.5,654.5C 489.394,656.444 487.394,658.611 485.5,661C 478.94,664.447 472.274,667.614 465.5,670.5C 465.5,670.167 465.5,669.833 465.5,669.5C 468.409,668.554 470.742,666.887 472.5,664.5C 472.833,664.5 473.167,664.5 473.5,664.5C 477.045,662.897 480.711,661.564 484.5,660.5C 484.5,659.5 484.5,658.5 484.5,657.5C 486.619,657.532 487.952,656.532 488.5,654.5 Z"/></g>
<g><path style="opacity:0.106" fill="#f2f2f2" d="M 465.5,669.5 C 465.5,669.833 465.5,670.167 465.5,670.5C 465.167,670.5 464.833,670.5 464.5,670.5C 462.081,671.364 460.081,672.697 458.5,674.5C 457.833,674.5 457.167,674.5 456.5,674.5C 456.5,673.5 456.5,672.5 456.5,671.5C 459.564,671.072 462.564,670.406 465.5,669.5 Z"/></g>
<g><path style="opacity:0.561" fill="#868686" d="M 464.5,670.5 C 463.226,672.812 461.226,674.145 458.5,674.5C 460.081,672.697 462.081,671.364 464.5,670.5 Z"/></g>
<g><path style="opacity:0.052" fill="#eeeeee" d="M 454.5,674.5 C 452.531,677.158 449.865,678.824 446.5,679.5C 446.414,678.504 446.748,677.671 447.5,677C 450.031,676.552 452.364,675.719 454.5,674.5 Z"/></g>
<g><path style="opacity:0.733" fill="#6f6f6f" d="M 454.5,674.5 C 455.167,674.5 455.833,674.5 456.5,674.5C 457.167,674.5 457.833,674.5 458.5,674.5C 454.785,677.757 450.452,680.091 445.5,681.5C 445.833,680.833 446.167,680.167 446.5,679.5C 449.865,678.824 452.531,677.158 454.5,674.5 Z"/></g>
<g><path style="opacity:0.522" fill="#8c8c8c" d="M 445.5,681.5 C 443.887,683.088 441.887,684.088 439.5,684.5C 440.895,682.621 442.895,681.621 445.5,681.5 Z"/></g>
<g><path style="opacity:0.075" fill="#e0e0e0" d="M 446.5,679.5 C 446.167,680.167 445.833,680.833 445.5,681.5C 442.895,681.621 440.895,682.621 439.5,684.5C 438.5,685.167 437.5,685.833 436.5,686.5C 433.944,687.051 431.611,688.051 429.5,689.5C 429.5,688.5 429.5,687.5 429.5,686.5C 432.167,685.833 434.833,685.167 437.5,684.5C 437.5,683.5 437.5,682.5 437.5,681.5C 440.564,681.072 443.564,680.406 446.5,679.5 Z"/></g>
<g><path style="opacity:0.822" fill="#505050" d="M 204.5,677.5 C 205.117,677.611 205.617,677.944 206,678.5C 206.188,684.748 206.688,690.915 207.5,697C 206.978,697.561 206.645,698.228 206.5,699C 207.994,701.639 208.661,704.472 208.5,707.5C 208.167,707.5 207.833,707.5 207.5,707.5C 205.187,697.678 204.187,687.678 204.5,677.5 Z"/></g>
<g><path style="opacity:0.91" fill="#444444" d="M 436.5,686.5 C 433.231,691.479 428.565,694.479 422.5,695.5C 424.833,693.5 427.167,691.5 429.5,689.5C 431.611,688.051 433.944,687.051 436.5,686.5 Z"/></g>
<g><path style="opacity:0.106" fill="#cfcfcf" d="M 429.5,689.5 C 427.167,691.5 424.833,693.5 422.5,695.5C 421.5,695.5 420.5,695.5 419.5,695.5C 419.5,696.5 419.5,697.5 419.5,698.5C 414.995,700.014 410.995,702.347 407.5,705.5C 405.034,706.298 403.034,707.631 401.5,709.5C 400.833,709.5 400.167,709.5 399.5,709.5C 399.5,708.5 399.5,707.5 399.5,706.5C 404.333,703.867 409.333,701.534 414.5,699.5C 414.48,697.857 415.147,696.524 416.5,695.5C 420.519,692.721 424.852,690.721 429.5,689.5 Z"/></g>
<g><path style="opacity:0.918" fill="#4d4d4d" d="M 407.5,705.5 C 406.226,707.812 404.226,709.145 401.5,709.5C 403.034,707.631 405.034,706.298 407.5,705.5 Z"/></g>
<g><path style="opacity:1" fill="#202020" d="M 792.5,693.5 C 797.018,706.745 800.018,720.411 801.5,734.5C 799.891,731.094 798.724,727.427 798,723.5C 797.355,722.354 796.522,721.354 795.5,720.5C 797.412,718.458 797.579,716.458 796,714.5C 792.877,716.589 792.71,715.922 795.5,712.5C 794.174,712.795 792.841,712.295 791.5,711C 792.42,708.165 793.42,705.332 794.5,702.5C 792.74,699.788 792.073,696.788 792.5,693.5 Z"/></g>
<g><path style="opacity:0.036" fill="#d1d1d1" d="M 399.5,709.5 C 398.19,712.473 396.19,714.807 393.5,716.5C 390.422,719.252 387.089,721.586 383.5,723.5C 382.609,724.11 381.609,724.443 380.5,724.5C 380.369,723.761 380.536,723.094 381,722.5C 384.095,721.575 385.928,719.575 386.5,716.5C 388.737,715.551 391.071,714.884 393.5,714.5C 393.5,713.5 393.5,712.5 393.5,711.5C 395.718,711.386 397.718,710.72 399.5,709.5 Z"/></g>
<g><path style="opacity:0.647" fill="#747474" d="M 207.5,707.5 C 207.833,707.5 208.167,707.5 208.5,707.5C 209.489,712.975 209.822,718.642 209.5,724.5C 209.167,724.5 208.833,724.5 208.5,724.5C 208.5,724.167 208.5,723.833 208.5,723.5C 207.725,718.203 207.392,712.87 207.5,707.5 Z"/></g>
<g><path style="opacity:0.88" fill="#4b4b4b" d="M 399.5,709.5 C 400.167,709.5 400.833,709.5 401.5,709.5C 400.005,713.338 397.338,715.671 393.5,716.5C 396.19,714.807 398.19,712.473 399.5,709.5 Z"/></g>
<g><path style="opacity:0.167" fill="#e0e0e0" d="M 208.5,724.5 C 208.833,724.5 209.167,724.5 209.5,724.5C 212.05,730.214 213.383,736.214 213.5,742.5C 213.167,742.5 212.833,742.5 212.5,742.5C 210.886,736.502 209.552,730.502 208.5,724.5 Z"/></g>
<g><path style="opacity:0.984" fill="#393939" d="M 383.5,723.5 C 382.134,726.713 380.134,729.546 377.5,732C 377.833,732.333 378.167,732.667 378.5,733C 377.347,734.883 375.681,735.716 373.5,735.5C 375.697,731.706 378.03,728.039 380.5,724.5C 381.609,724.443 382.609,724.11 383.5,723.5 Z"/></g>
<g><path style="opacity:0.301" fill="#ebebeb" d="M 642.5,744.5 C 643.48,747.116 644.98,749.449 647,751.5C 647.986,755.632 649.153,759.632 650.5,763.5C 650.755,765.967 651.755,767.967 653.5,769.5C 654.738,777.573 656.071,785.573 657.5,793.5C 658.098,798.813 658.431,804.146 658.5,809.5C 656.305,816.537 655.305,823.871 655.5,831.5C 654.766,832.708 654.433,834.041 654.5,835.5C 652.011,840.893 650.344,846.56 649.5,852.5C 649.167,852.5 648.833,852.5 648.5,852.5C 648.167,852.5 647.833,852.5 647.5,852.5C 648.258,846.928 649.758,841.595 652,836.5C 653.705,825.626 655.205,814.626 656.5,803.5C 654.731,787.886 651.565,772.553 647,757.5C 644.642,753.443 641.809,749.777 638.5,746.5C 633.458,750.377 628.958,754.711 625,759.5C 622.836,761.48 621.336,763.813 620.5,766.5C 619.022,766.238 617.689,766.571 616.5,767.5C 615.167,769.167 613.833,770.833 612.5,772.5C 611.675,773.386 610.675,773.719 609.5,773.5C 608.493,776.358 606.827,778.858 604.5,781C 599.531,784.395 594.864,788.229 590.5,792.5C 589.311,793.429 587.978,793.762 586.5,793.5C 586.04,796.957 584.04,798.623 580.5,798.5C 580.5,799.5 580.5,800.5 580.5,801.5C 575.984,803.593 571.65,805.926 567.5,808.5C 567.5,809.5 567.5,810.5 567.5,811.5C 563.96,811.377 561.96,813.043 561.5,816.5C 556.065,819.38 550.732,822.547 545.5,826C 542.898,827.14 540.231,827.973 537.5,828.5C 537.5,829.5 537.5,830.5 537.5,831.5C 534.657,831.917 531.99,832.917 529.5,834.5C 525.969,836.428 522.636,838.594 519.5,841C 516.487,841.909 513.487,842.742 510.5,843.5C 510.5,844.5 510.5,845.5 510.5,846.5C 507.436,846.928 504.436,847.594 501.5,848.5C 501.5,849.5 501.5,850.5 501.5,851.5C 498.833,852.167 496.167,852.833 493.5,853.5C 493.5,854.5 493.5,855.5 493.5,856.5C 490.593,856.575 487.927,857.409 485.5,859C 483.123,861.714 480.456,864.047 477.5,866C 475.58,867.122 473.58,867.956 471.5,868.5C 471.5,869.5 471.5,870.5 471.5,871.5C 467.808,872.024 465.141,874.024 463.5,877.5C 462.311,878.429 460.978,878.762 459.5,878.5C 459.167,881.5 457.5,883.167 454.5,883.5C 454.719,884.675 454.386,885.675 453.5,886.5C 449.177,890.156 445.177,894.156 441.5,898.5C 438.349,905.4 434.682,912.067 430.5,918.5C 423.069,936.385 421.736,954.718 426.5,973.5C 428.886,980.728 432.219,987.395 436.5,993.5C 438.002,997.155 437.502,1000.49 435,1003.5C 431.238,1000.69 427.071,999.024 422.5,998.5C 422.5,997.5 422.5,996.5 422.5,995.5C 419.017,995.309 415.684,994.643 412.5,993.5C 412.5,992.5 412.5,991.5 412.5,990.5C 409.564,989.594 406.564,988.928 403.5,988.5C 403.5,987.5 403.5,986.5 403.5,985.5C 400.068,985.243 396.734,984.576 393.5,983.5C 393.5,982.5 393.5,981.5 393.5,980.5C 390.769,979.973 388.102,979.14 385.5,978C 381.128,974.997 376.795,971.997 372.5,969C 371.552,968.517 370.552,968.351 369.5,968.5C 369.5,967.5 369.5,966.5 369.5,965.5C 364.326,963.947 359.66,961.614 355.5,958.5C 355.5,957.5 355.5,956.5 355.5,955.5C 342.632,946.807 330.465,937.141 319,926.5C 318.517,925.552 318.351,924.552 318.5,923.5C 314.96,923.623 312.96,921.957 312.5,918.5C 310.097,918.607 308.264,917.607 307,915.5C 302.688,911.018 298.521,906.351 294.5,901.5C 293.614,900.675 293.281,899.675 293.5,898.5C 291.097,898.607 289.264,897.607 288,895.5C 275.758,880.009 264.258,864.009 253.5,847.5C 251.895,844.686 250.895,841.686 250.5,838.5C 251.728,839.306 252.728,840.306 253.5,841.5C 258.699,851.355 265.032,860.355 272.5,868.5C 272.5,868.833 272.5,869.167 272.5,869.5C 277.06,877.393 282.726,884.393 289.5,890.5C 325.437,933.788 368.77,967.455 419.5,991.5C 423.868,994.351 428.535,996.684 433.5,998.5C 434.583,997.635 434.749,996.635 434,995.5C 431.915,991.694 429.749,988.027 427.5,984.5C 424.1,976.565 422.1,968.232 421.5,959.5C 421.434,950.148 421.768,940.815 422.5,931.5C 424.163,929.562 424.829,927.228 424.5,924.5C 424.687,922.436 425.187,920.436 426,918.5C 434.315,900.492 446.149,884.992 461.5,872C 481.519,855.315 503.519,841.648 527.5,831C 554.191,815.497 578.858,797.331 601.5,776.5C 614.556,765.065 626.723,752.732 638,739.5C 639.509,741.207 641.009,742.873 642.5,744.5 Z"/></g>
<g><path style="opacity:0.183" fill="#fdfdfd" d="M 212.5,742.5 C 212.833,742.5 213.167,742.5 213.5,742.5C 214.11,743.391 214.443,744.391 214.5,745.5C 214.5,746.5 214.5,747.5 214.5,748.5C 212.692,747.082 212.025,745.082 212.5,742.5 Z"/></g>
<g><path style="opacity:1" fill="#131313" d="M 642.5,744.5 C 641.009,742.873 639.509,741.207 638,739.5C 626.723,752.732 614.556,765.065 601.5,776.5C 601.196,775.85 600.863,775.183 600.5,774.5C 603.092,771.209 606.092,768.376 609.5,766C 609.157,763.35 608.49,760.516 607.5,757.5C 610.518,757.665 613.518,757.498 616.5,757C 618.807,755.172 618.474,753.506 615.5,752C 618.014,750.548 620.68,749.382 623.5,748.5C 624.145,747.268 624.311,745.935 624,744.5C 625,745.5 626,746.5 627,747.5C 626.973,745.583 626.139,743.916 624.5,742.5C 625.325,741.614 626.325,741.281 627.5,741.5C 627.281,742.675 627.614,743.675 628.5,744.5C 630.35,743.758 631.016,742.758 630.5,741.5C 631.451,742.326 632.451,742.492 633.5,742C 630.956,740.225 630.956,738.392 633.5,736.5C 632.833,736.167 632.167,735.833 631.5,735.5C 633.947,733.777 636.613,733.277 639.5,734C 638.062,734.219 636.729,734.719 635.5,735.5C 637.343,735.755 639.343,735.922 641.5,736C 641.167,736.333 640.833,736.667 640.5,737C 643.466,738.91 644.133,741.41 642.5,744.5 Z"/></g>
<g><path style="opacity:0.996" fill="#3b3b3b" d="M 801.5,737.5 C 803.561,743.879 804.561,750.546 804.5,757.5C 804.444,762.731 805.111,767.731 806.5,772.5C 807.732,789.322 807.732,805.989 806.5,822.5C 806.5,821.167 806.5,819.833 806.5,818.5C 807.391,798.978 806.058,779.645 802.5,760.5C 803.56,754.844 803.394,749.177 802,743.5C 801.667,743.833 801.333,744.167 801,744.5C 800.666,742.153 800.833,739.819 801.5,737.5 Z"/></g>
<g><path style="opacity:0.502" fill="#757575" d="M 218.5,757.5 C 219.407,759.657 220.073,761.99 220.5,764.5C 219.883,764.389 219.383,764.056 219,763.5C 218.505,761.527 218.338,759.527 218.5,757.5 Z"/></g>
<g><path style="opacity:0.655" fill="#6f6f6f" d="M 650.5,763.5 C 651.746,765.008 653.08,766.508 654.5,768C 653.944,768.383 653.611,768.883 653.5,769.5C 651.755,767.967 650.755,765.967 650.5,763.5 Z"/></g>
<g><path style="opacity:0.62" fill="#797979" d="M 220.5,764.5 C 222.779,769.074 224.112,774.074 224.5,779.5C 224.167,779.5 223.833,779.5 223.5,779.5C 223.5,779.167 223.5,778.833 223.5,778.5C 221.909,773.976 220.909,769.309 220.5,764.5 Z"/></g>
<g><path style="opacity:0.095" fill="#eeeeee" d="M 214.5,745.5 C 215.533,748.986 216.367,752.653 217,756.5C 217.383,757.056 217.883,757.389 218.5,757.5C 218.338,759.527 218.505,761.527 219,763.5C 219.383,764.056 219.883,764.389 220.5,764.5C 220.909,769.309 221.909,773.976 223.5,778.5C 220.148,771.584 217.315,764.251 215,756.5C 214.503,753.854 214.336,751.187 214.5,748.5C 214.5,747.5 214.5,746.5 214.5,745.5 Z"/></g>
<g><path style="opacity:0.922" fill="#8d8d8d" d="M 804.5,757.5 C 806.031,762.25 806.698,767.25 806.5,772.5C 805.111,767.731 804.444,762.731 804.5,757.5 Z"/></g>
<g><path style="opacity:0.296" fill="#eaeaea" d="M 422.5,1144.5 C 422.833,1144.5 423.167,1144.5 423.5,1144.5C 429.795,1174 442.795,1200.33 462.5,1223.5C 477.703,1241.37 496.703,1253.04 519.5,1258.5C 526.648,1259.49 533.981,1259.82 541.5,1259.5C 541.771,1257.62 541.104,1256.29 539.5,1255.5C 535.801,1248.1 532.134,1240.77 528.5,1233.5C 527.506,1227.51 526.506,1221.51 525.5,1215.5C 525.35,1205.37 526.35,1195.37 528.5,1185.5C 529.015,1183.11 529.681,1180.77 530.5,1178.5C 532.245,1176.97 533.245,1174.97 533.5,1172.5C 536.623,1164.93 540.79,1157.93 546,1151.5C 562.6,1132.46 581.767,1116.63 603.5,1104C 678.634,1068.32 737.801,1014.82 781,943.5C 791.561,921.345 798.395,898.011 801.5,873.5C 804.143,856.739 805.809,839.739 806.5,822.5C 807.732,805.989 807.732,789.322 806.5,772.5C 806.698,767.25 806.031,762.25 804.5,757.5C 804.561,750.546 803.561,743.879 801.5,737.5C 801.5,736.5 801.5,735.5 801.5,734.5C 800.018,720.411 797.018,706.745 792.5,693.5C 788.503,677.171 783.503,661.171 777.5,645.5C 774.493,638.74 771.493,632.073 768.5,625.5C 749.267,580.643 722.601,540.977 688.5,506.5C 682.869,499.202 676.536,492.535 669.5,486.5C 654.756,472.763 639.09,460.096 622.5,448.5C 621.63,446.401 620.297,446.068 618.5,447.5C 617.212,449.299 617.212,450.965 618.5,452.5C 620.256,453.552 620.923,455.219 620.5,457.5C 621.63,470.788 621.797,484.122 621,497.5C 620.626,499.491 619.793,501.158 618.5,502.5C 619.086,495.612 619.086,488.778 618.5,482C 618.851,477.117 619.518,472.284 620.5,467.5C 619.149,461.433 617.483,455.433 615.5,449.5C 615.76,447.813 616.427,446.313 617.5,445C 619.81,444.503 622.143,444.337 624.5,444.5C 624.5,445.5 624.5,446.5 624.5,447.5C 625.552,447.351 626.552,447.517 627.5,448C 629.907,451.661 633.24,453.827 637.5,454.5C 637.5,455.5 637.5,456.5 637.5,457.5C 641.04,457.377 643.04,459.043 643.5,462.5C 646.5,462.833 648.167,464.5 648.5,467.5C 651.014,467.754 653.348,468.587 655.5,470C 658.347,473.056 661.347,475.89 664.5,478.5C 665.325,479.386 666.325,479.719 667.5,479.5C 667.96,482.957 669.96,484.623 673.5,484.5C 674.833,487.167 676.167,489.833 677.5,492.5C 678.675,492.281 679.675,492.614 680.5,493.5C 682.212,496.713 684.712,499.047 688,500.5C 691.405,504.195 694.238,508.195 696.5,512.5C 697.675,512.281 698.675,512.614 699.5,513.5C 703.366,519.313 708.033,524.313 713.5,528.5C 742.167,566.27 765.333,607.27 783,651.5C 791.22,675.725 797.887,700.391 803,725.5C 809.405,765.105 811.238,805.105 808.5,845.5C 806.326,862.394 804.159,879.394 802,896.5C 797.544,914.142 791.211,931.142 783,947.5C 777.57,955.592 772.57,963.925 768,972.5C 759.773,982.596 751.94,992.929 744.5,1003.5C 740.019,1006.94 736.019,1010.94 732.5,1015.5C 731.614,1016.32 731.281,1017.32 731.5,1018.5C 730.325,1018.28 729.325,1018.61 728.5,1019.5C 727.167,1021.17 725.833,1022.83 724.5,1024.5C 723.311,1025.43 721.978,1025.76 720.5,1025.5C 719.167,1028.17 717.833,1030.83 716.5,1033.5C 715.325,1033.28 714.325,1033.61 713.5,1034.5C 712.167,1036.17 710.833,1037.83 709.5,1039.5C 708.311,1040.43 706.978,1040.76 705.5,1040.5C 704.757,1043.57 702.757,1045.24 699.5,1045.5C 699.5,1046.5 699.5,1047.5 699.5,1048.5C 696.248,1050.08 693.248,1052.08 690.5,1054.5C 689.147,1055.52 688.48,1056.86 688.5,1058.5C 685.845,1058.66 683.512,1059.66 681.5,1061.5C 679.016,1063.48 676.683,1065.65 674.5,1068C 672.348,1069.41 670.014,1070.25 667.5,1070.5C 667.5,1071.5 667.5,1072.5 667.5,1073.5C 665.263,1074.45 662.929,1075.12 660.5,1075.5C 660.719,1076.68 660.386,1077.68 659.5,1078.5C 654.368,1081.52 649.368,1084.69 644.5,1088C 642.012,1089.46 639.345,1090.46 636.5,1091C 633.167,1093.33 629.833,1095.67 626.5,1098C 597.457,1111.18 572.124,1129.68 550.5,1153.5C 526.961,1181.4 522.294,1212.06 536.5,1245.5C 541.469,1249.77 543.969,1255.1 544,1261.5C 532.486,1262.91 520.986,1262.57 509.5,1260.5C 509.5,1259.5 509.5,1258.5 509.5,1257.5C 500.626,1257.58 493.293,1254.42 487.5,1248C 485.348,1246.59 483.014,1245.75 480.5,1245.5C 480.5,1244.5 480.5,1243.5 480.5,1242.5C 476.849,1242.84 475.183,1241.17 475.5,1237.5C 471.96,1237.62 469.96,1235.96 469.5,1232.5C 468.022,1232.76 466.689,1232.43 465.5,1231.5C 462.496,1227.5 459.163,1223.83 455.5,1220.5C 444.252,1204.67 435.085,1187.67 428,1169.5C 425.594,1161.33 423.761,1153 422.5,1144.5 Z"/></g>
<g><path style="opacity:0.596" fill="#808080" d="M 622.5,448.5 C 621.167,448.5 619.833,448.5 618.5,448.5C 618.5,449.833 618.5,451.167 618.5,452.5C 617.212,450.965 617.212,449.299 618.5,447.5C 620.297,446.068 621.63,446.401 622.5,448.5 Z"/></g>
<g><path style="opacity:0.157" fill="#fdfdfd" d="M 223.5,779.5 C 223.833,779.5 224.167,779.5 224.5,779.5C 224.833,780.167 225.167,780.833 225.5,781.5C 225.5,782.5 225.5,783.5 225.5,784.5C 223.787,783.365 223.12,781.698 223.5,779.5 Z"/></g>
<g><path style="opacity:0.478" fill="#848484" d="M 225.5,781.5 C 227.472,784.084 228.472,787.084 228.5,790.5C 227.687,788.739 226.687,787.072 225.5,785.5C 225.5,785.167 225.5,784.833 225.5,784.5C 225.5,783.5 225.5,782.5 225.5,781.5 Z"/></g>
<g><path style="opacity:0.147" fill="#f8f8f8" d="M 225.5,785.5 C 226.687,787.072 227.687,788.739 228.5,790.5C 228.833,791.167 229.167,791.833 229.5,792.5C 229.604,794.703 230.27,796.703 231.5,798.5C 229.926,798.063 228.759,797.063 228,795.5C 226.392,792.379 225.559,789.046 225.5,785.5 Z"/></g>
<g><path style="opacity:0.627" fill="#767676" d="M 229.5,792.5 C 231.008,794.181 232.008,796.181 232.5,798.5C 232.167,798.5 231.833,798.5 231.5,798.5C 230.27,796.703 229.604,794.703 229.5,792.5 Z"/></g>
<g><path style="opacity:0.867" fill="#2a2a2a" d="M 658.5,796.5 C 659.805,798.397 660.471,800.731 660.5,803.5C 660.333,805.833 660.167,808.167 660,810.5C 659,813.5 658,816.5 657,819.5C 656.824,823.688 656.324,827.688 655.5,831.5C 655.305,823.871 656.305,816.537 658.5,809.5C 659.794,805.267 659.794,800.934 658.5,796.5 Z"/></g>
<g><path style="opacity:1" fill="#262626" d="M 247.5,829.5 C 241.344,821.518 237.011,812.518 234.5,802.5C 235.822,802.67 236.989,802.337 238,801.5C 238.5,802.5 239,803.5 239.5,804.5C 238.833,804.833 238.167,805.167 237.5,805.5C 238.167,806.167 238.833,806.833 239.5,807.5C 238.101,813.115 240.434,815.782 246.5,815.5C 245.024,815.354 243.691,816.187 242.5,818C 242.667,818.5 242.833,819 243,819.5C 245.173,816.723 245.673,816.89 244.5,820C 246.569,820.324 246.902,821.158 245.5,822.5C 246.325,824.801 246.992,827.135 247.5,829.5 Z"/></g>
<g><path style="opacity:0.378" fill="#7d7d7d" d="M 657.5,793.5 C 658.404,794.209 658.737,795.209 658.5,796.5C 659.794,800.934 659.794,805.267 658.5,809.5C 658.431,804.146 658.098,798.813 657.5,793.5 Z"/></g>
<g><path style="opacity:1" fill="#171717" d="M 806.5,818.5 C 806.5,819.833 806.5,821.167 806.5,822.5C 805.809,839.739 804.143,856.739 801.5,873.5C 801.056,867.755 800.723,862.255 800.5,857C 802.241,855.454 803.241,853.454 803.5,851C 803.101,847.436 802.434,843.936 801.5,840.5C 802.024,838.547 803.024,836.88 804.5,835.5C 804.069,834.707 803.735,833.873 803.5,833C 804.944,828.145 805.944,823.311 806.5,818.5 Z"/></g>
<g><path style="opacity:0.094" fill="#ededed" d="M 231.5,798.5 C 231.833,798.5 232.167,798.5 232.5,798.5C 233.6,799.605 234.267,800.938 234.5,802.5C 237.011,812.518 241.344,821.518 247.5,829.5C 247.5,830.167 247.5,830.833 247.5,831.5C 248.989,833.645 249.989,835.978 250.5,838.5C 248.926,838.063 247.759,837.063 247,835.5C 244.768,830.662 242.268,825.996 239.5,821.5C 235.833,814.132 233.166,806.465 231.5,798.5 Z"/></g>
<g><path style="opacity:1" fill="#262626" d="M 247.5,831.5 C 250.179,831.525 251.512,832.858 251.5,835.5C 252.978,835.238 254.311,835.571 255.5,836.5C 254.05,837.85 253.383,839.516 253.5,841.5C 252.728,840.306 251.728,839.306 250.5,838.5C 249.989,835.978 248.989,833.645 247.5,831.5 Z"/></g>
<g><path style="opacity:0.824" fill="#565656" d="M 654.5,835.5 C 653.706,841.502 652.04,847.168 649.5,852.5C 650.344,846.56 652.011,840.893 654.5,835.5 Z"/></g>
<g><path style="opacity:1" fill="#1f1f1f" d="M 253.5,841.5 C 255.423,841.795 257.09,842.628 258.5,844C 258.043,844.414 257.709,844.914 257.5,845.5C 259.204,847.602 260.537,849.935 261.5,852.5C 264.107,853.318 266.774,853.818 269.5,854C 267.285,855.943 267.285,857.609 269.5,859C 268.978,859.561 268.645,860.228 268.5,861C 270.627,863.03 271.96,865.53 272.5,868.5C 265.032,860.355 258.699,851.355 253.5,841.5 Z"/></g>
<g><path style="opacity:0.025" fill="#f0f0f0" d="M 647.5,853.5 C 647.88,855.698 647.213,857.365 645.5,858.5C 645.077,856.219 645.744,854.552 647.5,853.5 Z"/></g>
<g><path style="opacity:0.01" fill="#e9e9e9" d="M 645.5,858.5 C 645.312,861.206 644.312,863.539 642.5,865.5C 641.5,866.167 640.5,866.833 639.5,867.5C 640.337,863.674 642.337,860.674 645.5,858.5 Z"/></g>
<g><path style="opacity:0.997" fill="#2a2a2a" d="M 647.5,852.5 C 647.833,852.5 648.167,852.5 648.5,852.5C 648.131,856.74 647.631,860.74 647,864.5C 645.908,866.117 644.408,867.117 642.5,867.5C 642.5,866.833 642.5,866.167 642.5,865.5C 644.312,863.539 645.312,861.206 645.5,858.5C 647.213,857.365 647.88,855.698 647.5,853.5C 647.5,853.167 647.5,852.833 647.5,852.5 Z"/></g>
<g><path style="opacity:0.463" fill="#a7a7a7" d="M 642.5,865.5 C 642.5,866.167 642.5,866.833 642.5,867.5C 640.5,869.833 638.5,872.167 636.5,874.5C 636.557,873.391 636.89,872.391 637.5,871.5C 637.527,869.801 638.194,868.467 639.5,867.5C 640.5,866.833 641.5,866.167 642.5,865.5 Z"/></g>
<g><path style="opacity:0.999" fill="#1d1d1d" d="M 272.5,869.5 C 275.869,871.361 278.202,874.195 279.5,878C 280.899,878.595 282.232,878.428 283.5,877.5C 284.327,879.162 285.493,880.495 287,881.5C 287.684,882.784 287.517,883.951 286.5,885C 288.671,886.174 289.671,888.007 289.5,890.5C 282.726,884.393 277.06,877.393 272.5,869.5 Z"/></g>
<g><path style="opacity:0.067" fill="#f2f2f2" d="M 637.5,871.5 C 636.89,872.391 636.557,873.391 636.5,874.5C 634.5,876.833 632.5,879.167 630.5,881.5C 630.351,880.448 630.517,879.448 631,878.5C 632.735,875.638 634.902,873.304 637.5,871.5 Z"/></g>
<g><path style="opacity:0.435" fill="#a5a5a5" d="M 636.5,874.5 C 636.649,875.552 636.483,876.552 636,877.5C 633.817,879.907 631.65,882.24 629.5,884.5C 628.5,885.167 627.5,885.833 626.5,886.5C 626.738,883.931 628.071,882.265 630.5,881.5C 632.5,879.167 634.5,876.833 636.5,874.5 Z"/></g>
<g><path style="opacity:0.678" fill="#6d6d6d" d="M 629.5,884.5 C 627.573,889.697 624.239,893.697 619.5,896.5C 622.579,893.743 624.912,890.41 626.5,886.5C 627.5,885.833 628.5,885.167 629.5,884.5 Z"/></g>
<g><path style="opacity:0.031" fill="#e0e0e0" d="M 626.5,886.5 C 624.912,890.41 622.579,893.743 619.5,896.5C 619.5,897.167 619.167,897.5 618.5,897.5C 615.665,898.069 613.999,899.736 613.5,902.5C 612.209,902.263 611.209,902.596 610.5,903.5C 610.5,904.167 610.167,904.5 609.5,904.5C 608.5,904.5 607.5,904.5 606.5,904.5C 606.5,905.5 606.5,906.5 606.5,907.5C 604.517,907.157 603.183,907.824 602.5,909.5C 601.167,909.5 599.833,909.5 598.5,909.5C 598.5,910.5 598.5,911.5 598.5,912.5C 596.328,913.801 593.995,914.801 591.5,915.5C 590.609,916.11 589.609,916.443 588.5,916.5C 588.5,915.5 588.5,914.5 588.5,913.5C 591.167,912.833 593.833,912.167 596.5,911.5C 596.5,910.5 596.5,909.5 596.5,908.5C 601.726,906.596 606.726,904.262 611.5,901.5C 611.5,900.5 611.5,899.5 611.5,898.5C 613.737,897.551 616.071,896.884 618.5,896.5C 618.281,895.325 618.614,894.325 619.5,893.5C 621.472,890.676 623.806,888.342 626.5,886.5 Z"/></g>
<g><path style="opacity:0.918" fill="#4a4a4a" d="M 618.5,897.5 C 616.536,899.127 615.203,901.127 614.5,903.5C 613.167,903.5 611.833,903.5 610.5,903.5C 611.209,902.596 612.209,902.263 613.5,902.5C 613.999,899.736 615.665,898.069 618.5,897.5 Z"/></g>
<g><path style="opacity:0.875" fill="#4c4c4c" d="M 609.5,904.5 C 608.194,905.467 607.527,906.801 607.5,908.5C 605.708,908.366 604.042,908.699 602.5,909.5C 603.183,907.824 604.517,907.157 606.5,907.5C 606.5,906.5 606.5,905.5 606.5,904.5C 607.5,904.5 608.5,904.5 609.5,904.5 Z"/></g>
<g><path style="opacity:0.994" fill="#292929" d="M 602.5,909.5 C 601.791,910.404 600.791,910.737 599.5,910.5C 598.768,913.02 597.602,915.354 596,917.5C 594.951,916.483 593.784,916.316 592.5,917C 593.167,917.333 593.833,917.667 594.5,918C 592.695,919.441 590.695,919.608 588.5,918.5C 589.9,917.9 590.9,916.9 591.5,915.5C 593.995,914.801 596.328,913.801 598.5,912.5C 598.5,911.5 598.5,910.5 598.5,909.5C 599.833,909.5 601.167,909.5 602.5,909.5 Z"/></g>
<g><path style="opacity:0.049" fill="#ececec" d="M 587.5,916.5 C 585.704,918.9 583.37,920.567 580.5,921.5C 580.414,920.504 580.748,919.671 581.5,919C 583.42,917.878 585.42,917.044 587.5,916.5 Z"/></g>
<g><path style="opacity:0.627" fill="#767676" d="M 591.5,915.5 C 590.9,916.9 589.9,917.9 588.5,918.5C 582.489,922.184 576.489,925.851 570.5,929.5C 572.814,927.523 575.147,925.523 577.5,923.5C 577.821,921.952 578.821,921.285 580.5,921.5C 583.37,920.567 585.704,918.9 587.5,916.5C 587.833,916.5 588.167,916.5 588.5,916.5C 589.609,916.443 590.609,916.11 591.5,915.5 Z"/></g>
<g><path style="opacity:0.98" fill="#8f8f8f" d="M 424.5,924.5 C 424.829,927.228 424.163,929.562 422.5,931.5C 422.41,928.848 423.076,926.515 424.5,924.5 Z"/></g>
<g><path style="opacity:0.029" fill="#e2e2e2" d="M 577.5,923.5 C 575.147,925.523 572.814,927.523 570.5,929.5C 569.167,929.5 567.833,929.5 566.5,929.5C 566.5,930.5 566.5,931.5 566.5,932.5C 564.517,932.157 563.183,932.824 562.5,934.5C 560.712,934.215 559.045,934.548 557.5,935.5C 551.611,938.64 545.944,941.974 540.5,945.5C 539.609,946.11 538.609,946.443 537.5,946.5C 537.5,945.5 537.5,944.5 537.5,943.5C 540.436,942.594 543.436,941.928 546.5,941.5C 546.5,940.5 546.5,939.5 546.5,938.5C 552.245,936.275 557.912,933.775 563.5,931C 566.5,928.169 569.834,925.835 573.5,924C 574.793,923.51 576.127,923.343 577.5,923.5 Z"/></g>
<g><path style="opacity:0.898" fill="#4e4e4e" d="M 562.5,934.5 C 561.432,935.434 560.099,935.768 558.5,935.5C 558.5,936.5 558.5,937.5 558.5,938.5C 552.334,940.606 546.334,942.939 540.5,945.5C 545.944,941.974 551.611,938.64 557.5,935.5C 559.045,934.548 560.712,934.215 562.5,934.5 Z"/></g>
<g><path style="opacity:0.031" fill="#e4e4e4" d="M 536.5,946.5 C 533.141,949.334 529.808,952 526.5,954.5C 524.315,954.704 522.315,955.37 520.5,956.5C 520.5,955.5 520.5,954.5 520.5,953.5C 523.436,952.594 526.436,951.928 529.5,951.5C 529.5,950.5 529.5,949.5 529.5,948.5C 531.929,948.116 534.263,947.449 536.5,946.5 Z"/></g>
<g><path style="opacity:0.647" fill="#5e5e5e" d="M 540.5,945.5 C 540.5,946.5 540.5,947.5 540.5,948.5C 537.996,949.639 535.33,950.306 532.5,950.5C 532.5,951.5 532.5,952.5 532.5,953.5C 530.379,953.325 528.379,953.659 526.5,954.5C 529.808,952 533.141,949.334 536.5,946.5C 536.833,946.5 537.167,946.5 537.5,946.5C 538.609,946.443 539.609,946.11 540.5,945.5 Z"/></g>
<g><path style="opacity:0.775" fill="#a4a4a4" d="M 422.5,931.5 C 421.768,940.815 421.434,950.148 421.5,959.5C 420.834,955.681 420.501,951.681 420.5,947.5C 420.276,941.902 420.943,936.569 422.5,931.5 Z"/></g>
<g><path style="opacity:0.016" fill="#e9e9e9" d="M 519.5,956.5 C 519.5,957.5 519.5,958.5 519.5,959.5C 517.071,959.884 514.737,960.551 512.5,961.5C 514.06,958.792 516.393,957.126 519.5,956.5 Z"/></g>
<g><path style="opacity:0.037" fill="#ededed" d="M 512.5,961.5 C 511.473,963.184 510.473,964.851 509.5,966.5C 508.5,966.5 507.5,966.5 506.5,966.5C 507.893,964.126 509.893,962.459 512.5,961.5 Z"/></g>
<g><path style="opacity:0.875" fill="#5a5a5a" d="M 519.5,959.5 C 518.791,960.404 517.791,960.737 516.5,960.5C 516.5,961.5 516.5,962.5 516.5,963.5C 514.105,964.316 511.771,965.316 509.5,966.5C 510.473,964.851 511.473,963.184 512.5,961.5C 514.737,960.551 517.071,959.884 519.5,959.5 Z"/></g>
<g><path style="opacity:0.941" fill="#353535" d="M 506.5,968.5 C 506.179,970.048 505.179,970.715 503.5,970.5C 503.5,971.5 503.5,972.5 503.5,973.5C 501.5,974.167 499.5,974.833 497.5,975.5C 498.401,973.273 500.067,972.273 502.5,972.5C 502.5,971.5 502.5,970.5 502.5,969.5C 503.959,969.567 505.292,969.234 506.5,968.5 Z"/></g>
<g><path style="opacity:0.01" fill="#cfcfcf" d="M 506.5,966.5 C 506.5,967.167 506.5,967.833 506.5,968.5C 505.292,969.234 503.959,969.567 502.5,969.5C 502.5,970.5 502.5,971.5 502.5,972.5C 500.067,972.273 498.401,973.273 497.5,975.5C 494.847,977.155 492.514,979.155 490.5,981.5C 488.938,981.733 487.605,982.4 486.5,983.5C 486.96,980.043 488.96,978.377 492.5,978.5C 492.421,977.07 492.754,975.736 493.5,974.5C 497.757,971.547 502.09,968.88 506.5,966.5 Z"/></g>
<g><path style="opacity:0.6" fill="#7c7c7c" d="M 490.5,981.5 C 489.415,983.587 487.749,984.92 485.5,985.5C 485.833,984.833 486.167,984.167 486.5,983.5C 487.605,982.4 488.938,981.733 490.5,981.5 Z"/></g>
<g><path style="opacity:0.025" fill="#efefef" d="M 486.5,983.5 C 486.167,984.167 485.833,984.833 485.5,985.5C 485.5,985.833 485.5,986.167 485.5,986.5C 482.573,987.757 480.239,989.757 478.5,992.5C 477.662,992.842 477.328,993.508 477.5,994.5C 475.518,995.807 473.518,997.141 471.5,998.5C 471.281,997.325 471.614,996.325 472.5,995.5C 476.576,990.753 481.243,986.753 486.5,983.5 Z"/></g>
<g><path style="opacity:0.569" fill="#7e7e7e" d="M 485.5,986.5 C 484.08,989.588 481.747,991.588 478.5,992.5C 480.239,989.757 482.573,987.757 485.5,986.5 Z"/></g>
<g><path style="opacity:0.996" fill="#272727" d="M 427.5,984.5 C 429.749,988.027 431.915,991.694 434,995.5C 434.749,996.635 434.583,997.635 433.5,998.5C 428.535,996.684 423.868,994.351 419.5,991.5C 420.822,991.67 421.989,991.337 423,990.5C 423.833,991.5 424.667,992.5 425.5,993.5C 426.524,992.147 427.857,991.48 429.5,991.5C 429.587,988.402 429.087,988.068 428,990.5C 426.204,988.598 426.037,986.598 427.5,984.5 Z"/></g>
<g><path style="opacity:0.612" fill="#6b6b6b" d="M 477.5,994.5 C 474.365,997.808 471.365,1001.31 468.5,1005C 466.922,1006.09 465.255,1006.93 463.5,1007.5C 466.195,1004.47 468.862,1001.47 471.5,998.5C 473.518,997.141 475.518,995.807 477.5,994.5 Z"/></g>
<g><path style="opacity:0.041" fill="#eaeaea" d="M 471.5,998.5 C 468.862,1001.47 466.195,1004.47 463.5,1007.5C 462.662,1007.84 462.328,1008.51 462.5,1009.5C 459.252,1011.3 456.919,1013.97 455.5,1017.5C 455.5,1017.83 455.5,1018.17 455.5,1018.5C 453.473,1019.86 451.806,1021.53 450.5,1023.5C 454.619,1012.72 461.619,1004.38 471.5,998.5 Z"/></g>
<g><path style="opacity:0.675" fill="#626262" d="M 462.5,1009.5 C 460.61,1012.65 458.277,1015.32 455.5,1017.5C 456.919,1013.97 459.252,1011.3 462.5,1009.5 Z"/></g>
<g><path style="opacity:0.998" fill="#333333" d="M 455.5,1018.5 C 454.928,1021.08 454.761,1023.75 455,1026.5C 454.333,1025.83 453.667,1025.17 453,1024.5C 450.368,1029.62 446.868,1033.96 442.5,1037.5C 444.734,1032.6 447.401,1027.93 450.5,1023.5C 451.806,1021.53 453.473,1019.86 455.5,1018.5 Z"/></g>
<g><path style="opacity:0.053" fill="#dddddd" d="M 450.5,1023.5 C 447.401,1027.93 444.734,1032.6 442.5,1037.5C 435.934,1048.31 431.267,1059.98 428.5,1072.5C 427.883,1072.61 427.383,1072.94 427,1073.5C 426.741,1076.59 426.241,1079.59 425.5,1082.5C 425.634,1084.29 425.301,1085.96 424.5,1087.5C 423.833,1087.83 423.167,1088.17 422.5,1088.5C 426.022,1068.28 432.855,1049.28 443,1031.5C 445.062,1028.3 447.562,1025.63 450.5,1023.5 Z"/></g>
<g><path style="opacity:0.886" fill="#494949" d="M 428.5,1072.5 C 428.31,1076.29 427.31,1079.63 425.5,1082.5C 426.241,1079.59 426.741,1076.59 427,1073.5C 427.383,1072.94 427.883,1072.61 428.5,1072.5 Z"/></g>
<g><path style="opacity:0.017" fill="#fafafa" d="M 422.5,1093.5 C 422.5,1104.83 422.5,1116.17 422.5,1127.5C 421.883,1127.39 421.383,1127.06 421,1126.5C 420.833,1121 420.667,1115.5 420.5,1110C 420.505,1104.12 421.171,1098.62 422.5,1093.5 Z"/></g>
<g><path style="opacity:0.507" fill="#828282" d="M 424.5,1087.5 C 423.525,1106.45 423.192,1125.45 423.5,1144.5C 423.167,1144.5 422.833,1144.5 422.5,1144.5C 422.5,1143.17 422.5,1141.83 422.5,1140.5C 422.5,1138.83 422.5,1137.17 422.5,1135.5C 422.5,1132.83 422.5,1130.17 422.5,1127.5C 422.5,1116.17 422.5,1104.83 422.5,1093.5C 422.5,1091.83 422.5,1090.17 422.5,1088.5C 423.167,1088.17 423.833,1087.83 424.5,1087.5 Z"/></g>
<g><path style="opacity:0.008" fill="#fdfdfd" d="M 422.5,1135.5 C 422.5,1137.17 422.5,1138.83 422.5,1140.5C 419.833,1138.83 419.833,1137.17 422.5,1135.5 Z"/></g>
<g><path style="opacity:0.996" fill="#676767" d="M 533.5,1172.5 C 533.245,1174.97 532.245,1176.97 530.5,1178.5C 530.755,1176.03 531.755,1174.03 533.5,1172.5 Z"/></g>
<g><path style="opacity:0.988" fill="#4e4e4e" d="M 528.5,1185.5 C 526.35,1195.37 525.35,1205.37 525.5,1215.5C 524.349,1210.35 524.183,1205.02 525,1199.5C 525.254,1194.48 526.421,1189.82 528.5,1185.5 Z"/></g>
<g><path style="opacity:1" fill="#131313" d="M 462.5,1223.5 C 465.136,1224.03 467.303,1225.37 469,1227.5C 469.333,1226.5 469.667,1225.5 470,1224.5C 471.495,1226.11 471.661,1227.78 470.5,1229.5C 473.428,1230.48 476.428,1230.82 479.5,1230.5C 478.591,1232.76 478.258,1234.93 478.5,1237C 484.088,1238.29 489.755,1238.79 495.5,1238.5C 495.5,1240.17 495.5,1241.83 495.5,1243.5C 494.325,1243.28 493.325,1243.61 492.5,1244.5C 493.498,1247.03 494.331,1247.03 495,1244.5C 496.242,1245.87 497.742,1246.87 499.5,1247.5C 503.223,1246.9 506.889,1246.73 510.5,1247C 508.913,1247.86 507.246,1248.53 505.5,1249C 507.019,1250.35 508.352,1251.85 509.5,1253.5C 510.086,1253.29 510.586,1252.96 511,1252.5C 516.536,1254.43 522.369,1255.09 528.5,1254.5C 528.34,1252.8 528.506,1251.13 529,1249.5C 529.333,1249.83 529.667,1250.17 530,1250.5C 530.779,1248.09 529.946,1246.43 527.5,1245.5C 527.746,1241.65 528.079,1237.65 528.5,1233.5C 532.134,1240.77 535.801,1248.1 539.5,1255.5C 539.5,1256.5 539.5,1257.5 539.5,1258.5C 532.833,1258.5 526.167,1258.5 519.5,1258.5C 496.703,1253.04 477.703,1241.37 462.5,1223.5 Z"/></g>
<g><path style="opacity:0.949" fill="#585858" d="M 539.5,1255.5 C 541.104,1256.29 541.771,1257.62 541.5,1259.5C 533.981,1259.82 526.648,1259.49 519.5,1258.5C 526.167,1258.5 532.833,1258.5 539.5,1258.5C 539.5,1257.5 539.5,1256.5 539.5,1255.5 Z"/></g>
</svg>
