<?xml version="1.0" encoding="UTF-8"?>
<!DOCTYPE svg PUBLIC "-//W3C//DTD SVG 1.1//EN" "http://www.w3.org/Graphics/SVG/1.1/DTD/svg11.dtd">
<svg xmlns="http://www.w3.org/2000/svg" version="1.1" width="968px" height="1277px" style="shape-rendering:geometricPrecision; text-rendering:geometricPrecision; image-rendering:optimizeQuality; fill-rule:evenodd; clip-rule:evenodd" xmlns:xlink="http://www.w3.org/1999/xlink">
<g><path style="opacity:1" fill="#fefffe" d="M 533.5,111.5 C 567.304,135.145 593.47,165.478 612,202.5C 631.769,247.836 631.103,292.836 610,337.5C 606.288,343.317 602.955,349.317 600,355.5C 572.839,394.988 541.172,430.321 505,461.5C 504.667,461.167 504.333,460.833 504,460.5C 495.783,467.721 487.283,474.554 478.5,481C 456.788,499.384 435.455,518.384 414.5,538C 400.193,551.704 386.36,565.871 373,580.5C 362.22,593.079 353.22,606.746 346,621.5C 333.369,662.894 340.202,700.56 366.5,734.5C 368.074,735.631 369.741,735.798 371.5,735C 376.113,730.387 380.779,725.721 385.5,721C 396.898,713.223 407.898,704.889 418.5,696C 426.91,690.598 435.576,685.598 444.5,681C 447.833,679.667 451.167,678.333 454.5,677C 462.122,672.419 469.622,667.586 477,662.5C 477.333,662.833 477.667,663.167 478,663.5C 492.537,652.604 507.371,642.438 522.5,633C 526,629.204 529.833,625.704 534,622.5C 534.333,622.833 534.667,623.167 535,623.5C 535.979,621.68 537.479,620.513 539.5,620C 559.351,601.01 577.851,580.843 595,559.5C 601.187,549.793 606.854,539.793 612,529.5C 612.163,527.324 612.996,525.491 614.5,524C 614.043,523.586 613.709,523.086 613.5,522.5C 621.157,502.23 623.657,481.23 621,459.5C 619.756,456.022 618.589,452.522 617.5,449C 617.388,447.338 618.054,446.171 619.5,445.5C 713.75,512.168 773.583,601.501 799,713.5C 804.311,743.405 807.478,773.738 808.5,804.5C 807.34,820.469 806.507,836.469 806,852.5C 803.442,890.844 792.442,926.844 773,960.5C 767.577,967.017 762.91,974.017 759,981.5C 714.262,1037.76 660.429,1080.59 597.5,1110C 575.327,1123.52 556.494,1140.69 541,1161.5C 521.206,1194.48 521.706,1227.14 542.5,1259.5C 542.291,1260.09 541.957,1260.59 541.5,1261C 532.575,1260.13 523.575,1259.46 514.5,1259C 510.03,1256.95 505.363,1255.29 500.5,1254C 479.167,1242.41 461.667,1226.58 448,1206.5C 436.138,1187.57 427.805,1167.24 423,1145.5C 415.993,1093.33 429.326,1047.33 463,1007.5C 473.833,996.667 484.667,985.833 495.5,975C 502.524,970.487 509.191,965.487 515.5,960C 534.352,948.059 553.685,937.059 573.5,927C 576.5,924.667 579.5,922.333 582.5,920C 584.972,918.54 587.639,917.54 590.5,917C 600.028,909.972 609.695,903.139 619.5,896.5C 627.192,886.641 634.692,876.641 642,866.5C 643.649,862.536 645.816,858.869 648.5,855.5C 648.291,854.914 647.957,854.414 647.5,854C 650.227,846.601 652.727,839.101 655,831.5C 655.059,822.767 656.226,814.267 658.5,806C 656.376,797.092 655.21,787.926 655,778.5C 652.302,769.818 649.635,761.151 647,752.5C 644.443,749.608 642.276,746.441 640.5,743C 639.056,742.219 637.723,742.386 636.5,743.5C 606.059,778.216 571.559,807.216 533,830.5C 532.667,830.167 532.333,829.833 532,829.5C 526.039,832.828 520.039,836.495 514,840.5C 489.694,852.121 467.527,868.121 447.5,888.5C 435.868,902.267 427.534,917.767 422.5,935C 422.735,935.873 423.069,936.707 423.5,937.5C 421.092,947.744 420.925,958.077 423,968.5C 424.397,973.198 425.73,977.864 427,982.5C 430.377,987.921 433.21,993.588 435.5,999.5C 432.368,999.216 429.368,998.383 426.5,997C 411.205,988.684 395.872,980.351 380.5,972C 363.234,959.74 346.234,947.074 329.5,934C 318.624,923.124 307.624,912.29 296.5,901.5C 290.277,892.105 283.11,883.438 275,875.5C 273.667,872.833 272.333,870.167 271,867.5C 263.004,858.166 256.004,848.166 250,837.5C 240.822,819.623 232.489,801.29 225,782.5C 223.496,776.286 221.496,770.286 219,764.5C 217.192,758.268 215.859,751.935 215,745.5C 212.063,740.251 210.73,734.584 211,728.5C 209.853,726.269 208.853,723.935 208,721.5C 207.667,714.833 207.333,708.167 207,701.5C 204.95,690.611 203.283,679.611 202,668.5C 201.972,645.16 203.306,621.826 206,598.5C 207.096,596.111 207.929,593.611 208.5,591C 206.742,585.063 207.575,579.563 211,574.5C 211.333,570.167 211.667,565.833 212,561.5C 216.754,547.242 221.087,532.909 225,518.5C 227.112,513.519 229.612,508.685 232.5,504C 232.167,503.667 231.833,503.333 231.5,503C 234.995,494.836 238.495,486.669 242,478.5C 248.496,468.184 255.496,458.184 263,448.5C 268.022,444.141 272.355,439.141 276,433.5C 295.122,415.014 315.288,398.514 336.5,384C 364.703,368.611 391.703,351.445 417.5,332.5C 420.843,329.717 424.509,327.384 428.5,325.5C 434.348,319.042 441.015,313.542 448.5,309C 463.571,293.929 478.738,278.762 494,263.5C 496.445,257.612 500.112,252.612 505,248.5C 511.868,238.088 518.202,227.421 524,216.5C 526.558,207.486 529.891,198.82 534,190.5C 533.82,184.989 535.153,179.989 538,175.5C 538.667,160.167 538.667,144.833 538,129.5C 536.613,125.725 534.946,122.058 533,118.5C 532.297,116.071 532.463,113.738 533.5,111.5 Z"/></g>
</svg>
